<svg width="69" height="69" viewBox="0 0 69 69" fill="none" xmlns="http://www.w3.org/2000/svg">
<path d="M37.8328 12.438C37.8535 12.5831 37.8742 12.7074 37.895 12.8111C38.1437 13.7647 38.3717 14.7183 38.6205 15.6719C39.0351 17.3303 39.2217 19.0302 39.201 20.7508C39.1802 24.5444 39.1802 28.338 39.1802 32.1317C39.201 38.7031 39.2217 45.2746 39.2424 51.8461C39.2424 51.9705 39.2424 52.0741 39.2424 52.24C39.5326 52.2192 39.7814 52.1571 40.0302 52.1778C40.4033 52.1778 40.4655 52.0327 40.4655 51.6803C40.4448 46.3941 40.4655 41.1078 40.4655 35.8424C40.4655 35.718 40.4655 35.5936 40.4655 35.4485C40.7765 35.4485 41.0045 35.4692 41.2532 35.4485C41.813 35.407 41.813 35.407 41.813 34.8888C41.813 27.4881 41.813 20.0874 41.813 12.6867C41.813 12.438 41.813 12.2099 41.813 11.9404C40.4862 12.0648 39.1802 12.2514 37.8328 12.438Z" fill="white"/>
<path d="M42.2067 12.4795C42.186 12.4795 42.1445 12.4795 42.1238 12.5002C42.1238 20.0875 42.1238 27.6747 42.1238 35.262C42.5177 35.262 42.9115 35.262 43.2847 35.262C43.3469 35.262 43.4298 35.1169 43.4298 35.034C43.4091 34.5157 43.3469 34.0182 43.3469 33.4999C43.3469 31.4476 43.3676 29.3954 43.3676 27.3431C43.3676 23.9848 43.3676 20.6472 43.3676 17.2889C43.3676 17.0401 43.3883 16.7914 43.3469 16.5633C43.2225 16.0036 43.0981 15.4439 42.9323 14.9049C42.725 14.0965 42.4555 13.288 42.2067 12.4795Z" fill="white"/>
<path d="M26.8039 26.0989C26.8247 26.1197 26.8454 26.1197 26.8661 26.1404C27.0112 25.9331 27.1771 25.7465 27.3222 25.5392C27.9441 24.6893 28.6904 23.9844 29.5403 23.404C32.256 21.559 35.3241 20.6262 38.558 20.1908C38.6409 20.1701 38.786 20.0457 38.786 19.9628C38.786 19.3616 38.7653 18.7397 38.7445 18.1385C38.7445 17.952 38.6409 17.8898 38.4543 17.9312C37.2312 18.2007 35.9667 18.408 34.7643 18.7604C33.7278 19.0714 32.7328 19.5689 31.717 20.0042C29.5403 20.9578 27.8197 22.409 26.8454 24.6685C26.8039 24.7515 26.7832 24.8344 26.7832 24.9173C26.8039 25.3112 26.8039 25.7051 26.8039 26.0989Z" fill="white"/>
<path d="M38.1229 15.0291C37.9571 14.428 37.7912 13.7853 37.6254 13.1634C37.5217 12.7695 37.4803 12.7281 37.0864 12.8317C36.4852 12.9768 35.8841 13.122 35.3036 13.35C33.4379 14.0341 31.5722 14.7804 29.9759 16.0034C28.9187 16.8119 27.9651 17.7241 27.3432 18.9264C26.9286 19.7349 26.825 20.5848 26.825 21.5177C26.8871 21.4762 26.9079 21.4762 26.9079 21.4555C26.9908 21.3311 27.0737 21.2067 27.1359 21.0824C27.5712 20.191 28.2346 19.4654 29.0016 18.8435C30.6808 17.4753 32.6087 16.6046 34.661 15.9827C35.7804 15.6303 36.9413 15.3401 38.1229 15.0291Z" fill="white"/>
<path d="M26.8041 34.2874C26.8249 34.3081 26.8663 34.3081 26.8871 34.3288C27.1358 34.0801 27.3846 33.8313 27.6541 33.6033C28.0479 33.2923 28.4004 32.9192 28.8357 32.7119C30.3697 32.007 31.9038 31.2815 33.5829 30.9498C35.2206 30.6388 36.8376 30.2657 38.496 30.2035C38.7033 30.2035 38.7655 30.1206 38.7655 29.934C38.7655 29.4572 38.7447 28.9804 38.7655 28.5036C38.7862 28.2134 38.7033 28.1098 38.3923 28.1305C37.5838 28.2134 36.7754 28.2549 35.9876 28.3585C33.8317 28.6695 31.7587 29.3121 29.8515 30.3486C28.7528 30.9498 27.7163 31.6546 26.9492 32.6911C26.8871 32.7741 26.8041 32.8777 26.8041 32.9814C26.7834 33.4167 26.8041 33.852 26.8041 34.2874Z" fill="white"/>
<path d="M38.7449 42.8702C38.5998 42.8702 38.4754 42.8702 38.351 42.8702C36.8792 42.8287 35.4281 43.0567 33.9562 43.264C32.4222 43.4921 30.8674 43.6164 29.3541 44.0725C28.6078 44.3005 27.903 44.5908 27.1982 44.881C27.0323 44.9639 26.8457 45.1919 26.8043 45.3578C26.7421 45.7724 26.7836 46.2077 26.7836 46.7053C26.9701 46.6638 27.136 46.6638 27.2811 46.6016C28.3383 46.1663 29.3956 45.7724 30.5357 45.6066C32.7124 45.2956 34.9098 45.0883 37.1072 45.0676C37.6255 45.0676 38.1644 45.0054 38.7034 44.9846C38.7449 44.3213 38.7449 43.6164 38.7449 42.8702Z" fill="white"/>
<path d="M26.8043 38.4341C27.2396 38.1232 27.6335 37.7915 28.0481 37.522C29.2504 36.7964 30.5772 36.4233 31.9246 36.0709C33.8318 35.5526 35.8012 35.3868 37.7705 35.2624C38.1022 35.2417 38.4339 35.2209 38.7449 35.2002C38.7449 34.4746 38.7449 33.8113 38.7449 33.1064C38.6205 33.1064 38.5168 33.1064 38.3924 33.1064C36.0499 33.1479 33.7489 33.5832 31.5307 34.2881C29.8516 34.8271 28.2346 35.449 26.9908 36.7757C26.9079 36.8586 26.825 36.9623 26.825 37.0659C26.7835 37.522 26.8043 37.978 26.8043 38.4341Z" fill="white"/>
<path d="M26.8042 30.0797C26.9493 29.9346 27.053 29.8309 27.1566 29.748C27.5505 29.3749 27.9236 28.9603 28.3382 28.6286C30.1418 27.2604 32.2148 26.4726 34.3915 25.9544C35.7389 25.6227 37.0864 25.3532 38.4753 25.2703C38.579 25.2703 38.7448 25.1666 38.7448 25.1044C38.7655 24.4825 38.7655 23.8399 38.7655 23.1973C38.5997 23.1973 38.496 23.218 38.3924 23.218C37.3766 23.2802 36.3816 23.4875 35.3865 23.7155C33.4171 24.1716 31.5307 24.752 29.8101 25.83C28.5455 26.6178 27.6334 27.675 26.8457 28.8981C26.8249 28.9395 26.8249 28.981 26.8249 29.0225C26.8042 29.3334 26.8042 29.6651 26.8042 30.0797Z" fill="white"/>
<path d="M38.7447 38.0816C38.5582 38.0816 38.4131 38.0816 38.268 38.0816C36.7754 38.0609 35.2828 38.2475 33.811 38.517C32.6915 38.7243 31.5721 38.9523 30.4734 39.2011C29.1674 39.4913 28.0894 40.2376 26.97 40.901C26.9078 40.9424 26.8249 41.0253 26.8041 41.0875C26.7834 41.5851 26.8041 42.0826 26.8041 42.6423C26.9285 42.5801 26.9907 42.5386 27.0736 42.5179C27.6333 42.2277 28.1723 41.9167 28.7735 41.668C31.3648 40.6315 34.0804 40.2376 36.8376 40.1339C37.4802 40.1132 38.1021 40.0925 38.7447 40.0718C38.7447 39.3877 38.7447 38.7657 38.7447 38.0816Z" fill="white"/>
<path d="M28.0896 11.5886C28.1103 11.6093 28.1518 11.6301 28.1725 11.6508C28.2554 11.5057 28.3384 11.3813 28.4213 11.2362C28.7115 10.7387 29.0017 10.2204 29.3127 9.72289C30.1834 8.37542 31.3235 7.27672 32.5466 6.26094C33.1063 5.80487 33.7282 5.411 34.3294 4.9964C34.5367 4.85128 34.6818 4.91348 34.7855 5.16224C34.9306 5.49392 35.0964 5.80487 35.2623 6.11583C37.2109 5.36954 39.201 5.01712 41.2326 4.87201C41.2326 4.08426 41.2326 3.31725 41.2326 2.55023C41.046 2.55023 40.8594 2.5295 40.6936 2.55023C40.2997 2.59169 39.9058 2.61242 39.512 2.69534C37.0658 3.19287 34.7855 4.06353 32.6917 5.43173C31.8418 5.99144 30.9296 6.5097 30.2455 7.23526C29.1054 8.43761 28.6493 10.0546 28.0896 11.5886Z" fill="white"/>
<path d="M32.5671 46.8506C32.6086 48.7992 32.6501 50.6442 32.6915 52.5099C33.4378 52.5514 34.1426 52.5929 34.8682 52.6136C34.8682 52.4063 34.8682 52.2819 34.8682 52.1575C34.8682 50.9759 34.8682 49.815 34.8682 48.6334C34.8682 47.7627 34.8682 47.7627 34.0597 47.4518C33.6244 47.2652 33.1476 47.0786 32.5671 46.8506Z" fill="#077E40"/>
<path d="M28.7737 46.9953C28.7737 47.5342 28.7737 48.011 28.7737 48.5086C28.7737 49.5865 28.7944 50.6645 28.7944 51.7425C28.7944 52.0742 28.9188 52.1778 29.209 52.1985C29.6029 52.24 29.976 52.2815 30.3699 52.3229C30.5358 52.3437 30.7223 52.3229 30.8467 52.3229C30.8467 50.4987 30.8467 48.7159 30.8467 46.8916C30.1004 46.9123 29.437 46.9538 28.7737 46.9953Z" fill="#077E40"/>
<path d="M28.3797 46.9541C27.592 47.0163 26.8871 47.0785 26.1823 47.1407C26.1616 47.2029 26.1408 47.2443 26.1408 47.2651C26.1408 48.6747 26.1408 50.0844 26.1201 51.494C26.1201 51.7221 26.2652 51.7428 26.4103 51.7635C26.6798 51.805 26.9286 51.8464 27.1981 51.8879C27.592 51.9501 27.9858 51.9915 28.359 52.033C28.3797 50.3331 28.3797 48.6747 28.3797 46.9541Z" fill="#077E40"/>
<path d="M41.8124 1.11914C41.7917 1.11914 41.7502 1.13987 41.7295 1.13987C41.7295 4.56036 41.7295 7.98084 41.7295 11.4428C42.1234 11.3184 42.2478 11.5464 42.3099 11.8574C42.3514 12.0232 42.4343 12.1891 42.4965 12.3549C42.6002 12.1891 42.6209 12.0232 42.6209 11.8574C42.6624 9.8051 42.6831 7.73208 42.7245 5.67979C42.7453 4.74693 42.6416 3.8348 42.3929 2.96413C42.227 2.34222 42.0197 1.74105 41.8124 1.11914Z" fill="#047C3F"/>
<path d="M25.6846 51.6599C25.7054 51.5562 25.7054 51.5148 25.7054 51.4526C25.6846 50.1051 25.6432 48.7784 25.6224 47.4309C25.6224 47.2443 25.5188 47.2029 25.3737 47.2236C24.8554 47.2858 24.3372 47.3687 23.8396 47.4102C23.5909 47.4309 23.508 47.5346 23.5287 47.7626C23.5494 48.8406 23.5701 49.9393 23.6116 51.0172C23.6116 51.1209 23.736 51.266 23.8189 51.2867C24.4201 51.4318 25.042 51.5355 25.6846 51.6599Z" fill="#077E40"/>
<path d="M41.2532 9.4323C41.2532 8.8104 41.2532 8.25068 41.2532 7.67024C39.5741 7.60804 37.9986 8.02265 36.4231 8.6031C36.6304 9.12135 36.8377 9.63961 37.045 10.1786C38.4547 9.86764 39.8021 9.39084 41.2532 9.4323Z" fill="white"/>
<path d="M23.2175 51.1829C23.2175 49.9391 23.2175 48.7368 23.2175 47.5137C23.1553 47.493 23.0931 47.4722 23.0517 47.493C22.492 47.6173 21.953 47.7417 21.414 47.8661C21.3518 47.8868 21.2689 48.0527 21.2896 48.1563C21.2896 48.9648 21.3104 49.7733 21.3518 50.5818C21.3518 50.6647 21.4555 50.8098 21.5384 50.8305C22.0774 50.9549 22.6371 51.0586 23.2175 51.1829Z" fill="#077E40"/>
<path d="M32.2558 52.4679C32.2558 50.5608 32.2558 48.7158 32.2558 46.8086C31.8619 46.8501 31.5509 46.8708 31.24 46.8915C31.24 48.7365 31.24 50.54 31.24 52.3643C31.6131 52.4058 31.9241 52.4472 32.2558 52.4679Z" fill="#077E40"/>
<path d="M43.1813 14.6151C43.2228 14.6151 43.285 14.5944 43.3264 14.5944C43.3264 12.936 43.3264 11.2983 43.3264 9.61914C43.2643 9.61914 43.1606 9.61914 43.0155 9.61914C42.974 10.9044 42.8911 12.169 42.8911 13.4542C42.9118 13.8274 43.0984 14.2212 43.1813 14.6151Z" fill="#047C3F"/>
<path d="M20.8548 50.6852C20.3158 50.5609 19.8183 50.4572 19.3208 50.3328C19.2586 50.3121 19.1964 50.2499 19.1342 50.2085C16.5429 47.5964 14.7187 44.5284 13.6614 40.9835C13.0602 38.9934 12.7493 36.9618 12.77 34.8888C12.7907 30.1623 14.1382 25.8297 16.9368 21.9946C19.0513 19.0717 21.7462 16.8121 24.9801 15.2158C25.6435 14.8842 26.3276 14.6147 27.0117 14.3037C27.2604 14.8634 27.1361 15.1329 26.6385 15.361C22.2023 17.2267 18.761 20.2533 16.3563 24.4201C15.0503 26.6797 14.2211 29.1258 13.8273 31.7171C13.537 33.645 13.537 35.5936 13.7858 37.5423C14.3041 41.5225 15.8588 45.0466 18.3879 48.1562C18.7611 48.6122 19.1757 49.0476 19.5903 49.5036C19.611 49.5244 19.6524 49.5451 19.7768 49.628C19.7768 49.2756 19.7976 48.9854 19.7768 48.6951C19.7561 48.4878 19.839 48.3635 20.0256 48.3013C20.2951 48.1976 20.5438 48.0732 20.8755 47.9489C20.8548 48.861 20.8548 49.7317 20.8548 50.6852Z" fill="#077E40"/>
<path d="M48.5712 50.602C48.9236 50.5191 49.276 50.4362 49.6285 50.374C49.898 50.3325 50.1053 50.1874 50.2918 49.9801C53.6087 46.5182 55.6195 42.4136 56.2621 37.6456C56.5316 35.6348 56.5316 33.624 56.2207 31.6132C55.8475 29.0426 55.0391 26.6172 53.7952 24.3576C51.7222 20.6054 48.7993 17.7032 45.0471 15.6094C44.9227 15.5472 44.7776 15.485 44.6117 15.4229C44.6117 15.6509 44.6325 15.8375 44.6117 16.0033C44.591 16.2313 44.6947 16.3557 44.8812 16.4594C46.1043 17.1227 47.2238 17.9312 48.281 18.8433C51.3698 21.5175 53.5257 24.7929 54.7281 28.6902C55.2049 30.2242 55.4744 31.779 55.578 33.3752C55.6195 33.9764 55.578 34.5983 55.578 35.2202C51.9295 35.4897 48.3017 35.7592 44.6325 36.0494C44.7983 36.4018 44.9434 36.6921 45.0885 37.003C45.4617 37.7493 45.4617 37.7286 46.2909 37.6664C47.8249 37.542 49.359 37.4591 50.893 37.3347C51.7429 37.2725 52.5722 37.2103 53.4221 37.1481C54.1062 37.1067 54.7903 37.0652 55.4951 37.0237C54.8732 42.4343 52.5307 46.9121 48.5712 50.602Z" fill="#009859"/>
<path d="M20.8543 50.6855C20.8543 49.7319 20.8543 48.8612 20.8543 47.9283C20.5226 48.0735 20.2738 48.1978 20.0044 48.2808C19.8178 48.343 19.7349 48.4673 19.7556 48.6746C19.7763 48.9649 19.7556 49.2551 19.7556 49.6075C19.6519 49.5246 19.6105 49.5246 19.569 49.4831C19.1751 49.0478 18.7398 48.6124 18.3667 48.1356C15.8376 45.0261 14.2828 41.502 13.7646 37.5218C13.5158 35.5731 13.5158 33.6245 13.806 31.6966C14.1792 29.1053 15.0084 26.6591 16.3351 24.3995C18.7398 20.2328 22.181 17.2062 26.6173 15.3404C27.1148 15.1331 27.2392 14.8429 26.9904 14.2832C26.3063 14.5734 25.6222 14.8636 24.9589 15.1953C21.725 16.7916 19.03 19.0512 16.9156 21.9741C14.1377 25.8092 12.7695 30.1418 12.7488 34.8683C12.7488 36.9413 13.0597 38.9729 13.6402 40.963C14.6974 44.4871 16.5217 47.5552 19.113 50.1879C19.1751 50.2501 19.2373 50.2916 19.2995 50.3123C19.8178 50.4574 20.3153 50.5611 20.8543 50.6855Z" fill="#009859"/>
<path d="M13.1641 19.3199C14.0762 20.0869 14.9469 20.8125 15.8383 21.5588C15.9626 21.3929 16.087 21.2686 16.1907 21.1234C15.4444 20.5015 14.7188 19.8796 14.014 19.2785C14.1177 19.237 14.1798 19.2577 14.242 19.2785C14.9676 19.6723 15.6931 20.0455 16.4187 20.4186C16.5224 20.4601 16.6675 20.4186 16.7919 20.4186C16.7711 20.315 16.7919 20.1699 16.7297 20.0869C16.3772 19.6309 16.0248 19.1748 15.6724 18.7187C15.4651 18.47 15.2785 18.2005 15.092 17.931C15.1127 17.9103 15.1334 17.8895 15.1542 17.8688C15.8797 18.4907 16.6053 19.0919 17.3723 19.7345C17.4552 19.5272 17.8698 19.4443 17.5796 19.1955C16.7711 18.47 15.9212 17.7859 15.0712 17.0811C14.9676 17.1847 14.8847 17.2884 14.8017 17.392C14.4701 17.7859 14.4701 17.7859 14.781 18.2005C15.1334 18.6566 15.4651 19.0919 15.8175 19.5479C15.6724 19.5687 15.5688 19.5272 15.4651 19.4858C14.9883 19.237 14.5115 18.9675 14.0347 18.7187C13.9518 18.6773 13.7652 18.6566 13.703 18.7187C13.4957 18.9053 13.3506 19.1126 13.1641 19.3199Z" fill="#009859"/>
<path d="M54.7075 19.3616C54.7282 19.3824 54.7489 19.4031 54.7696 19.4238C54.7075 19.5275 54.666 19.6311 54.6038 19.7348C54.3136 20.2116 54.0234 20.6884 53.7331 21.1444C53.4429 21.6212 53.4429 21.6212 53.899 22.0151C54.7904 21.3103 55.7025 20.6054 56.6146 19.8799C56.4903 19.714 56.3866 19.6104 56.283 19.4653C55.661 19.9421 55.0599 20.4189 54.4587 20.8957C54.438 20.8749 54.4172 20.8542 54.3965 20.8335C54.4587 20.7298 54.5002 20.6262 54.5623 20.5225C54.8526 20.0457 55.1428 19.5897 55.433 19.1129C55.7232 18.6568 55.7025 18.5946 55.2464 18.2422C54.355 18.947 53.4636 19.6311 52.5515 20.3567C52.6759 20.5225 52.7795 20.6469 52.8832 20.792C53.5258 20.2945 54.127 19.8384 54.7075 19.3616Z" fill="#009859"/>
<path d="M25.3535 12.624C25.3327 12.6447 25.2913 12.6654 25.2705 12.6862C25.1876 12.6033 25.1047 12.5411 25.0425 12.4581C24.6486 12.0435 24.234 11.6289 23.8402 11.2143C23.467 10.8412 23.467 10.8412 22.9695 11.1729C23.4255 12.2094 23.9023 13.2666 24.3584 14.3239C24.545 14.2409 24.6901 14.1788 24.8559 14.0958C24.5243 13.3703 24.2133 12.6654 23.9023 11.9606C24.0475 11.9813 24.1511 12.0643 24.234 12.1472C24.6279 12.5411 25.0218 12.9557 25.4157 13.3703C25.7888 13.7641 25.8303 13.7641 26.307 13.4117C25.851 12.3752 25.3742 11.318 24.8974 10.2607C24.7108 10.3437 24.5864 10.4059 24.3999 10.4888C24.7315 11.2351 25.0425 11.9192 25.3535 12.624Z" fill="#009859"/>
<path d="M9.34951 42.8905C10.4482 42.6003 11.5469 42.3101 12.6871 42.0198C12.6456 41.8333 12.6042 41.6674 12.5627 41.5016C11.7957 41.7089 11.0494 41.8955 10.3031 42.1028C10.2824 42.082 10.2824 42.0406 10.2616 42.0198C10.8006 41.6467 11.3396 41.2528 11.8786 40.8797C12.3347 40.548 12.3347 40.548 12.1274 39.9883C11.0287 40.2785 9.90923 40.5687 8.78979 40.8797C8.83126 41.0663 8.87272 41.2321 8.91418 41.4187C9.6812 41.2114 10.4275 41.0248 11.1738 40.8175C11.1945 40.8382 11.1945 40.8797 11.2152 40.9004C10.6762 41.2943 10.1165 41.6882 9.57754 42.0613C9.12148 42.3308 9.12148 42.3308 9.34951 42.8905Z" fill="#009859"/>
<path d="M12.5209 28.5036C11.4014 28.2341 10.3027 27.9853 9.16259 27.7158C9.12113 27.9024 9.07966 28.0682 9.0382 28.2548C9.80522 28.4414 10.5308 28.6072 11.2771 28.7731C11.2771 28.7938 11.2771 28.8353 11.2563 28.856C11.1941 28.8767 11.1112 28.8974 11.049 28.8974C10.4479 28.9804 9.86741 29.084 9.26624 29.1255C8.85163 29.1462 8.70652 29.3328 8.68579 29.7059C8.68579 29.7267 8.68579 29.7474 8.70652 29.8096C9.80522 30.0583 10.9247 30.3278 12.0648 30.5973C12.1063 30.4107 12.1477 30.2449 12.1892 30.0583C11.4222 29.8718 10.6759 29.7059 9.9296 29.5194C9.99179 29.4157 10.054 29.395 10.1162 29.395C10.7381 29.312 11.36 29.2291 11.9819 29.1462C12.4794 29.084 12.4794 29.084 12.5209 28.5036Z" fill="#009859"/>
<path d="M50.8308 18.3669C50.9759 18.512 51.0796 18.6364 51.2247 18.8023C51.5564 18.4913 51.8673 18.1804 52.199 17.9109C52.2819 17.8487 52.4685 17.8072 52.5307 17.8487C52.738 18.0145 52.9038 18.2218 53.0904 18.4291C52.6758 18.823 52.3027 19.1754 51.9088 19.5486C52.0539 19.6937 52.1783 19.818 52.3027 19.9632C53.1733 19.1547 54.0025 18.3669 54.8525 17.5792C54.7074 17.4133 54.583 17.3097 54.4586 17.1646C54.1062 17.4755 53.7745 17.7865 53.4221 18.0974C53.1941 17.8487 52.9868 17.6206 52.7587 17.3926C53.1111 17.0609 53.4221 16.75 53.7538 16.439C53.6087 16.2939 53.505 16.1695 53.3599 16.0244C52.51 16.7707 51.6807 17.5585 50.8308 18.3669Z" fill="#009859"/>
<path d="M58.9569 29.6235C58.7703 29.6649 58.646 29.7064 58.5009 29.7479C58.563 30.2247 58.563 30.2247 58.107 30.2661C58.0655 30.2661 58.0241 30.2661 57.9826 30.2661C57.7546 30.2454 57.568 30.1625 57.5265 29.9137C57.4643 29.6649 57.568 29.4576 57.796 29.3747C58.4387 29.2089 59.0813 29.0638 59.7239 28.9394C59.9727 28.8979 60.1178 29.0638 60.1593 29.2918C60.2215 29.5198 60.1385 29.7064 59.9312 29.81C59.8276 29.8722 59.7447 29.9137 59.641 29.9759C59.6825 30.1417 59.7239 30.3076 59.7654 30.4527C60.5117 30.2661 60.7605 29.9137 60.6361 29.2503C60.5324 28.587 60.1385 28.2345 59.4959 28.3382C58.8533 28.4419 58.2106 28.6284 57.568 28.815C57.2363 28.9186 56.9875 29.1467 56.9875 29.5406C56.9875 29.9344 57.0912 30.2661 57.4851 30.432C57.5058 30.432 57.5265 30.4734 57.5473 30.5149C57.4436 30.5771 57.3607 30.6185 57.2778 30.6807C57.2985 30.7844 57.3192 30.888 57.3607 31.0124C57.9411 30.888 58.5009 30.7636 59.0398 30.6185C59.0813 30.5978 59.1435 30.4941 59.1435 30.4527C59.1228 30.2039 59.0398 29.9344 58.9569 29.6235Z" fill="#009859"/>
<path d="M10.3657 45.751C11.2363 45.3986 12.0655 45.0876 12.8947 44.756C13.185 44.6316 13.4337 44.445 13.4337 44.0926C13.4545 43.6572 13.3093 43.2426 12.9777 42.9524C12.8118 42.8073 12.5216 42.7451 12.2936 42.7451C12.0033 42.7658 11.7338 42.911 11.4436 43.0146C10.8217 43.2426 10.2205 43.4914 9.59863 43.7194C9.68155 43.906 9.74374 44.0719 9.80593 44.2584C10.1583 44.134 10.49 44.0097 10.8217 43.8853C11.3192 43.6987 11.8168 43.5121 12.3143 43.3463C12.5631 43.2634 12.7911 43.3463 12.8947 43.6365C12.9984 43.9267 12.874 44.0926 12.6252 44.217C12.4801 44.2792 12.3143 44.3621 12.1692 44.4243C11.5058 44.673 10.8424 44.9218 10.1584 45.1913C10.2413 45.3779 10.2827 45.523 10.3657 45.751Z" fill="#009859"/>
<path d="M50.7896 13.7235C50.3957 13.4333 50.0018 13.1638 49.6287 12.8735C49.4421 12.7284 49.3177 12.7492 49.1726 12.9357C48.758 13.5369 48.3019 14.1381 47.8666 14.7393C47.68 14.988 47.5142 15.2368 47.3069 15.5063C47.8044 15.8587 48.2605 16.1904 48.758 16.5428C48.8617 16.3977 48.9653 16.2733 49.069 16.1282C48.7373 15.8794 48.4471 15.6514 48.1154 15.4026C48.3227 15.1124 48.53 14.8429 48.7373 14.5734C49.0482 14.7807 49.3177 14.988 49.6287 15.1953C49.7323 15.0502 49.8152 14.9466 49.9189 14.8015C49.6909 14.6356 49.4421 14.4905 49.2348 14.3039C49.1726 14.2417 49.1104 14.0759 49.1519 14.0137C49.2555 13.8064 49.4214 13.6406 49.5665 13.454C49.8982 13.682 50.1884 13.8893 50.5201 14.1174C50.603 13.993 50.6859 13.8893 50.7896 13.7235Z" fill="#009859"/>
<path d="M50.9134 16.833C50.789 16.9367 50.7061 17.0818 50.5817 17.1233C50.4159 17.1855 50.2086 17.2062 50.0635 17.144C49.8562 17.0403 49.8355 16.7916 49.9806 16.6257C50.4159 16.1075 50.8512 15.5892 51.3073 15.1124C51.3902 15.0295 51.6804 15.0502 51.8048 15.1332C51.9085 15.1954 51.9292 15.4649 51.8877 15.5892C51.7634 15.9624 51.7634 16.0246 52.178 16.1904C52.2402 16.0868 52.3231 15.9831 52.3853 15.8587C52.6133 15.4234 52.5304 15.1332 52.1158 14.76C51.7634 14.4283 51.3488 14.3662 50.9963 14.6149C50.333 15.1124 49.8147 15.7136 49.4208 16.4392C49.255 16.7501 49.3172 17.0611 49.5452 17.3306C50.1049 17.9939 50.7269 17.9525 51.3073 17.2062C51.2036 17.0818 51.0793 16.9782 50.9134 16.833Z" fill="#009859"/>
<path d="M10.0962 26.4309C10.2413 26.037 10.3657 25.6846 10.5315 25.2285C10.3035 25.2492 10.034 25.2078 9.99254 25.2907C9.7645 25.7675 9.59866 26.2858 9.39136 26.804C10.4901 27.2393 11.5473 27.6332 12.646 28.0686C12.7289 27.8613 12.7704 27.7161 12.8533 27.5296C12.4387 27.3637 12.0656 27.1979 11.6717 27.0528C11.4644 26.9699 11.4229 26.8869 11.5058 26.6796C11.6095 26.4309 11.6924 26.1614 11.8168 25.8919C11.651 25.8297 11.5058 25.7882 11.3607 25.726C11.2363 26.0163 11.1534 26.265 11.029 26.5138C10.9876 26.5967 10.8425 26.7004 10.7803 26.6796C10.5523 26.6382 10.3449 26.5345 10.0962 26.4309Z" fill="#009859"/>
<path d="M60.8019 30.7012C59.7861 31.3438 58.8325 32.1316 57.4644 31.9657C57.5058 32.2352 57.5265 32.4218 57.5887 32.6705C58.8533 32.1523 59.952 32.7327 61.1129 33.0644C61.1336 32.4632 61.1129 32.484 60.6154 32.3389C60.3251 32.2559 60.0349 32.173 59.6618 32.0694C60.0142 31.8621 60.2629 31.717 60.5117 31.5718C60.947 31.3231 60.947 31.3231 60.8019 30.7012Z" fill="#009859"/>
<path d="M20.4405 16.8745C19.8393 16.0868 19.2381 15.3198 18.637 14.532C18.8443 14.3455 19.0101 14.2003 19.2174 14.0345C19.093 13.8894 19.0101 13.7857 18.9065 13.6406C18.3467 14.076 17.8078 14.4906 17.248 14.9259C17.3517 15.071 17.4553 15.1954 17.5383 15.3198C17.7663 15.1539 17.9529 15.0295 18.1602 14.8844C18.7821 15.6722 19.3833 16.4392 19.9844 17.227C20.1503 17.1026 20.2747 16.9989 20.4405 16.8745Z" fill="#009859"/>
<path d="M48.8405 12.3549C48.2393 12.0025 47.6382 11.6708 47.037 11.3184C46.9541 11.4842 46.8711 11.6086 46.8089 11.7537C47.037 11.8988 47.2236 12.0025 47.4516 12.1476C46.9541 13.0182 46.4773 13.8474 45.9797 14.7181C46.1663 14.8218 46.3114 14.9047 46.498 15.0083C46.9333 14.2413 47.3687 13.495 47.7833 12.7487C47.9284 12.5 48.032 12.4378 48.2808 12.6036C48.6332 12.8524 48.6332 12.8317 48.8405 12.3549Z" fill="#009859"/>
<path d="M56.5315 26.1613C56.4071 25.8711 56.3034 25.6223 56.179 25.3736C56.0547 25.1456 56.0754 25.0212 56.3449 24.9382C56.6973 24.8139 57.0497 24.6273 57.4021 24.4822C57.8375 24.2749 58.2728 24.0883 58.7496 23.8603C58.6667 23.6737 58.5837 23.5079 58.5216 23.3213C57.4436 23.7981 56.4071 24.2749 55.3291 24.7517C55.5779 25.3114 55.8059 25.8296 56.0547 26.3686C56.2205 26.3064 56.3656 26.2442 56.5315 26.1613Z" fill="#009859"/>
<path d="M11.0704 39.8642C11.2155 39.8435 11.3814 39.8228 11.5265 39.7813C11.9411 39.6776 12.1277 39.3252 12.0447 38.8692C11.9411 38.3302 11.6716 38.1436 11.1948 38.2058C10.7802 38.268 10.3863 38.3095 9.97171 38.3716C9.45346 38.4546 8.9352 38.5375 8.37549 38.6411C8.39622 38.8484 8.43768 39.0143 8.45841 39.2008C9.412 39.0557 10.3241 38.9106 11.257 38.807C11.3606 38.7862 11.485 38.9314 11.6094 39.0143C11.5265 39.1179 11.4436 39.263 11.3399 39.3045C10.9253 39.4082 10.9253 39.3874 11.0704 39.8642Z" fill="#009859"/>
<path d="M11.9411 31.1153C10.8838 30.9288 9.84731 30.7422 8.79007 30.5556C8.60349 30.5142 8.47911 30.5349 8.47911 30.7422C8.45838 30.9288 8.41692 31.0946 8.70715 31.1568C9.59855 31.3019 10.4692 31.4678 11.3399 31.6129C12.0033 31.7165 11.8789 31.7165 11.9411 31.1153Z" fill="#009859"/>
<path d="M19.2168 13.4538C19.9009 14.4073 20.585 15.3402 21.2691 16.2938C21.4557 16.1694 21.58 16.0658 21.7459 15.9414C21.0618 14.9878 20.3984 14.0757 19.7143 13.1221C19.5277 13.2465 19.3826 13.3294 19.2168 13.4538Z" fill="#009859"/>
<path d="M37.8325 12.4379C39.18 12.2513 40.486 12.0647 41.8127 11.8574C41.8127 12.1269 41.8127 12.3757 41.8127 12.6037C41.8127 20.0044 41.8127 27.4051 41.8127 34.8058C41.8127 35.3448 41.8127 35.3448 41.253 35.3655C41.0042 35.3862 40.7762 35.3655 40.4653 35.3655C40.4653 35.5106 40.4653 35.635 40.4653 35.7594C40.4653 41.0456 40.4653 46.3318 40.4653 51.5973C40.4653 51.9497 40.3823 52.1155 40.0299 52.0948C39.7812 52.0948 39.5324 52.1362 39.2422 52.157C39.2422 52.0119 39.2422 51.8875 39.2422 51.7631C39.2214 45.1916 39.2007 38.6201 39.18 32.0487C39.18 28.255 39.1593 24.4614 39.2007 20.6678C39.2214 18.9472 39.0349 17.268 38.6203 15.5889C38.3922 14.6353 38.1435 13.6817 37.8947 12.7281C37.874 12.7074 37.8532 12.583 37.8325 12.4379Z" fill="#009859"/>
<path d="M48.571 50.6018C52.5305 46.9118 54.873 42.4341 55.5364 37.0442C54.8315 37.0857 54.1474 37.1272 53.4634 37.1686C52.6134 37.2308 51.7842 37.293 50.9343 37.3552C49.4002 37.4589 47.8662 37.5625 46.3322 37.6869C45.4822 37.7491 45.5029 37.7698 45.1298 37.0235C44.9847 36.7333 44.8396 36.4223 44.6737 36.0699C48.343 35.8004 51.9708 35.5309 55.6193 35.2407C55.6193 34.5981 55.6608 33.9969 55.6193 33.3957C55.5156 31.7995 55.2461 30.224 54.7694 28.7107C53.567 24.8134 51.4111 21.5173 48.3223 18.8638C47.265 17.9517 46.1456 17.164 44.9225 16.4799C44.7359 16.3762 44.6115 16.2518 44.653 16.0238C44.6737 15.858 44.653 15.6714 44.653 15.4434C44.8189 15.5263 44.964 15.5677 45.0883 15.6299C48.8405 17.7237 51.7635 20.6259 53.8365 24.3781C55.0803 26.6584 55.8888 29.0838 56.2619 31.6337C56.5522 33.6445 56.5729 35.6553 56.3034 37.6662C55.6608 42.4341 53.6499 46.5387 50.3331 50.0006C50.1465 50.2079 49.9392 50.3323 49.6697 50.3945C49.2759 50.436 48.9234 50.5189 48.571 50.6018Z" fill="#009859"/>
<path d="M42.2067 12.4795C42.4555 13.288 42.725 14.0965 42.953 14.9049C43.1189 15.4439 43.2432 16.0036 43.3676 16.5633C43.4091 16.7914 43.3883 17.0401 43.3883 17.2889C43.3883 20.6472 43.3883 23.9848 43.3883 27.3431C43.3883 29.3954 43.3676 31.4476 43.3676 33.4999C43.3676 34.0182 43.4298 34.5157 43.4505 35.034C43.4505 35.1169 43.3469 35.2413 43.3054 35.262C42.9323 35.2827 42.5384 35.262 42.1445 35.262C42.1445 27.6747 42.1445 20.0875 42.1445 12.5002C42.1445 12.4795 42.186 12.4795 42.2067 12.4795Z" fill="#009859"/>
<path d="M26.8047 26.0992C26.8047 25.7053 26.8047 25.3114 26.8047 24.8968C26.8047 24.8139 26.8254 24.731 26.8669 24.648C27.8412 22.4092 29.5618 20.9581 31.7385 19.9837C32.7335 19.5484 33.7286 19.0509 34.7858 18.7399C35.9882 18.3668 37.232 18.1802 38.4758 17.9107C38.6624 17.8693 38.7453 17.9314 38.766 18.118C38.7868 18.7192 38.8075 19.3411 38.8075 19.9423C38.8075 20.0252 38.6831 20.1703 38.5795 20.1703C35.3455 20.6056 32.2982 21.5385 29.5618 23.3835C28.7119 23.9639 27.9656 24.6688 27.3437 25.5187C27.1986 25.726 27.0327 25.9126 26.8876 26.1199C26.8461 26.1406 26.8254 26.1199 26.8047 26.0992Z" fill="#009859"/>
<path d="M38.1234 15.0294C36.921 15.3403 35.7601 15.6098 34.62 15.9622C32.5677 16.5841 30.6398 17.4548 28.9606 18.823C28.1936 19.4449 27.551 20.1704 27.0949 21.0618C27.0327 21.1862 26.9498 21.3106 26.8669 21.435C26.8669 21.4557 26.8254 21.4557 26.7839 21.4972C26.7839 20.5851 26.8876 19.7144 27.3022 18.9059C27.9241 17.7035 28.8777 16.7914 29.9349 15.9829C31.5312 14.7599 33.3969 14.0136 35.2626 13.3295C35.843 13.1222 36.4442 12.9771 37.0454 12.8112C37.4393 12.7076 37.4807 12.749 37.5844 13.1429C37.7917 13.8063 37.9575 14.4282 38.1234 15.0294Z" fill="#009859"/>
<path d="M26.8047 34.2875C26.8047 33.8521 26.8047 33.4375 26.8047 33.0022C26.8047 32.8985 26.8876 32.7949 26.9498 32.712C27.7168 31.6962 28.7533 30.9706 29.852 30.3695C31.7799 29.333 33.8322 28.6903 35.9882 28.3794C36.7759 28.255 37.6051 28.2342 38.3929 28.1513C38.7038 28.1099 38.7868 28.2342 38.766 28.5245C38.7453 29.0013 38.7453 29.4781 38.766 29.9549C38.766 30.1414 38.7038 30.2244 38.4965 30.2244C36.8381 30.2865 35.2004 30.6597 33.5835 30.9706C31.9043 31.3023 30.3703 32.0072 28.8363 32.7327C28.4009 32.94 28.0278 33.3132 27.6546 33.6241C27.3851 33.8521 27.1364 34.1009 26.8876 34.3497C26.8669 34.3082 26.8254 34.2875 26.8047 34.2875Z" fill="#009859"/>
<path d="M38.7447 42.8701C38.7447 43.6164 38.7447 44.3005 38.7447 45.0261C38.2057 45.0468 37.6667 45.109 37.1485 45.109C34.9511 45.109 32.7537 45.3163 30.577 45.648C29.4368 45.8138 28.3796 46.2077 27.3223 46.643C27.1772 46.7052 27.0114 46.7052 26.8248 46.7467C26.8248 46.2491 26.7834 45.8345 26.8455 45.3992C26.8663 45.2126 27.0528 44.9846 27.2394 44.9224C27.9442 44.6115 28.6698 44.3212 29.3954 44.1139C30.8879 43.6579 32.4427 43.5128 33.9975 43.3055C35.4486 43.0982 36.8997 42.8701 38.3923 42.9116C38.4752 42.8908 38.5996 42.8701 38.7447 42.8701Z" fill="#009859"/>
<path d="M26.8047 38.4331C26.8047 37.9563 26.8047 37.521 26.8047 37.0649C26.8047 36.9613 26.8876 36.8576 26.9705 36.7747C28.2143 35.4687 29.8313 34.8261 31.5104 34.2871C33.7493 33.5823 36.0296 33.1469 38.3722 33.1055C38.4758 33.1055 38.5795 33.1055 38.7246 33.1055C38.7246 33.8103 38.7246 34.4737 38.7246 35.1992C38.4136 35.22 38.0819 35.2407 37.7502 35.2614C35.7809 35.3858 33.8115 35.5724 31.9043 36.0699C30.5776 36.4223 29.2301 36.7955 28.0278 37.521C27.6339 37.7905 27.24 38.1222 26.8047 38.4331Z" fill="#009859"/>
<path d="M26.8047 30.0797C26.8047 29.6651 26.8047 29.3334 26.8047 29.0225C26.8047 28.981 26.8047 28.9395 26.8254 28.8981C27.6132 27.6957 28.546 26.6178 29.7898 25.83C31.5104 24.752 33.4176 24.1716 35.3663 23.7155C36.3613 23.4875 37.3564 23.2802 38.3722 23.218C38.4758 23.218 38.5795 23.1973 38.7453 23.1973C38.7453 23.8606 38.7453 24.4825 38.7246 25.1044C38.7246 25.1666 38.5587 25.2703 38.4551 25.2703C37.0661 25.3532 35.7187 25.6227 34.3712 25.9544C32.1945 26.4934 30.1215 27.2604 28.318 28.6286C27.8827 28.9603 27.5302 29.3749 27.1364 29.748C27.0535 29.8309 26.9705 29.9346 26.8047 30.0797Z" fill="#009859"/>
<path d="M38.7453 38.0807C38.7453 38.7648 38.7453 39.3867 38.7453 40.0708C38.1027 40.0915 37.46 40.1122 36.8381 40.133C34.081 40.2366 31.3446 40.6305 28.7741 41.667C28.1936 41.895 27.6546 42.2267 27.0742 42.5169C27.012 42.5584 26.9498 42.5791 26.8047 42.6413C26.8047 42.1023 26.8047 41.5841 26.8047 41.0866C26.8047 41.0244 26.8876 40.9414 26.9705 40.9C28.09 40.2366 29.1887 39.4903 30.4739 39.2001C31.5934 38.9513 32.6921 38.7233 33.8115 38.516C35.2834 38.2465 36.7552 38.0599 38.2685 38.0807C38.4136 38.0807 38.5587 38.0807 38.7453 38.0807Z" fill="#009859"/>
<path d="M28.0896 11.5876C28.6493 10.0536 29.1054 8.43664 30.2455 7.23428C30.9296 6.50873 31.8418 5.96974 32.6917 5.43075C34.7855 4.08329 37.0865 3.19189 39.512 2.69436C39.9058 2.61144 40.2997 2.59071 40.6936 2.54925C40.8594 2.52852 41.046 2.54925 41.2326 2.54925C41.2326 3.337 41.2326 4.08329 41.2326 4.87104C39.201 4.99542 37.2109 5.36856 35.2623 6.11485C35.0964 5.8039 34.9306 5.49294 34.7855 5.16126C34.6818 4.9125 34.516 4.87104 34.3294 4.99542C33.7282 5.41002 33.1063 5.8039 32.5466 6.25996C31.3235 7.27574 30.1834 8.37445 29.3127 9.72191C29.0017 10.2194 28.7115 10.7377 28.4213 11.2352C28.3384 11.3803 28.2554 11.5047 28.1725 11.6498C28.1518 11.6291 28.1311 11.6084 28.0896 11.5876Z" fill="#009859"/>
<path d="M32.5671 46.8496C33.1476 47.0776 33.6036 47.2642 34.0804 47.4508C34.8889 47.7825 34.8889 47.7825 34.8889 48.6324C34.8889 49.814 34.8889 50.9749 34.8889 52.1565C34.8889 52.2809 34.8889 52.426 34.8889 52.6126C34.1634 52.5711 33.4585 52.5297 32.7122 52.509C32.6708 50.6432 32.6293 48.7982 32.5671 46.8496Z" fill="#009859"/>
<path d="M28.7734 46.9955C29.4368 46.954 30.1001 46.9126 30.8257 46.8711C30.8257 48.6954 30.8257 50.4782 30.8257 52.3024C30.6806 52.3024 30.5148 52.3231 30.3489 52.3024C29.955 52.261 29.5819 52.1988 29.188 52.178C28.8978 52.1573 28.7734 52.0537 28.7734 51.722C28.7941 50.644 28.7734 49.566 28.7527 48.4881C28.7734 48.0113 28.7734 47.5345 28.7734 46.9955Z" fill="#009859"/>
<path d="M28.3795 46.9541C28.3795 48.6747 28.3795 50.3331 28.3795 52.033C28.0063 51.9915 27.6125 51.9501 27.2186 51.8879C26.9491 51.8464 26.7003 51.805 26.4308 51.7635C26.265 51.7428 26.1406 51.7013 26.1406 51.494C26.1406 50.0844 26.1406 48.6747 26.1614 47.2651C26.1614 47.2443 26.1821 47.2029 26.2028 47.1407C26.8869 47.0785 27.5917 47.037 28.3795 46.9541Z" fill="#009859"/>
<path d="M41.8131 1.11914C41.9997 1.74105 42.2278 2.34222 42.3936 2.96413C42.6424 3.85553 42.746 4.76766 42.7253 5.67979C42.6838 7.73208 42.6631 9.8051 42.6216 11.8574C42.6216 12.0232 42.5802 12.1891 42.4972 12.3549C42.4351 12.1891 42.3521 12.0232 42.3107 11.8574C42.2485 11.5464 42.1241 11.3184 41.7302 11.4428C41.7302 7.98084 41.7302 4.56036 41.7302 1.13987C41.7717 1.13987 41.7924 1.13987 41.8131 1.11914Z" fill="#009859"/>
<path d="M25.6847 51.6596C25.0421 51.5353 24.4202 51.4316 23.7983 51.3072C23.7154 51.2865 23.591 51.1414 23.591 51.0377C23.5495 49.9598 23.5495 48.8611 23.5081 47.7831C23.5081 47.5343 23.591 47.4514 23.819 47.4307C24.3373 47.3892 24.8555 47.3063 25.353 47.2441C25.5189 47.2234 25.6018 47.2648 25.6018 47.4514C25.6225 48.7989 25.664 50.1256 25.6847 51.4731C25.7262 51.4938 25.7055 51.556 25.6847 51.6596Z" fill="#009859"/>
<path d="M41.2533 9.4323C39.8021 9.39084 38.4547 9.86764 37.0658 10.1786C36.8585 9.63961 36.6511 9.12135 36.4438 8.6031C37.9986 8.02265 39.5741 7.60804 41.274 7.67024C41.2533 8.25068 41.2533 8.8104 41.2533 9.4323Z" fill="#009859"/>
<path d="M13.1641 19.3207C13.3506 19.0926 13.475 18.9061 13.6616 18.7402C13.7238 18.678 13.9104 18.6988 13.9933 18.7402C14.4701 18.989 14.9469 19.2585 15.4237 19.5072C15.5273 19.5487 15.6102 19.5902 15.7761 19.5694C15.4237 19.1134 15.092 18.678 14.7396 18.222C14.4286 17.8074 14.4286 17.8074 14.7603 17.4135C14.8432 17.3098 14.9261 17.2269 15.0298 17.1025C15.8797 17.8281 16.7297 18.5122 17.5381 19.217C17.8284 19.4658 17.4138 19.5487 17.3308 19.756C16.5845 19.1134 15.8383 18.5122 15.1127 17.8903C15.092 17.911 15.0712 17.9317 15.0505 17.9525C15.2371 18.222 15.4444 18.4707 15.631 18.7402C15.9834 19.1963 16.3565 19.6524 16.6882 20.1084C16.7504 20.1913 16.7297 20.3365 16.7504 20.4401C16.626 20.4401 16.4809 20.4816 16.3772 20.4401C15.6517 20.067 14.9261 19.6731 14.2006 19.2999C14.1384 19.2792 14.0762 19.2585 13.9725 19.2999C14.6981 19.9011 15.4029 20.5023 16.1492 21.1449C16.0456 21.29 15.9212 21.4144 15.7968 21.5803C14.9469 20.834 14.0762 20.0877 13.1641 19.3207Z" fill="#009859"/>
<path d="M23.2182 51.1822C22.6377 51.0578 22.078 50.9541 21.5183 50.8298C21.4354 50.809 21.3525 50.6639 21.3317 50.581C21.2903 49.7725 21.2695 48.964 21.2695 48.1556C21.2695 48.0519 21.3317 47.8861 21.3939 47.8653C21.9329 47.7202 22.4926 47.5958 23.0316 47.4922C23.0731 47.4922 23.1145 47.5129 23.1974 47.5129C23.2182 48.7153 23.2182 49.9384 23.2182 51.1822Z" fill="#009859"/>
<path d="M32.2565 52.4677C31.9456 52.447 31.6139 52.4055 31.2407 52.3848C31.2407 50.5605 31.2407 48.7363 31.2407 46.912C31.5309 46.8913 31.8626 46.8498 32.2565 46.8291C32.2565 48.7156 32.2565 50.5605 32.2565 52.4677Z" fill="#009859"/>
<path d="M54.7077 19.3616C54.1273 19.8177 53.5261 20.2945 52.9042 20.792C52.8005 20.6469 52.6969 20.5225 52.5725 20.3567C53.4846 19.6311 54.376 18.947 55.2674 18.2422C55.7235 18.5946 55.7235 18.6568 55.454 19.1129C55.1638 19.5897 54.8736 20.0457 54.5833 20.5225C54.5211 20.6262 54.4797 20.7298 54.4175 20.8335C54.4382 20.8542 54.459 20.8749 54.4797 20.8957C55.0809 20.4189 55.682 19.9628 56.3039 19.4653C56.4283 19.6104 56.5112 19.7348 56.6356 19.8799C55.7235 20.6054 54.8321 21.3103 53.92 22.0151C53.4639 21.6419 53.4639 21.6212 53.7541 21.1444C54.0444 20.6676 54.3346 20.1908 54.6248 19.7348C54.687 19.6311 54.7284 19.5275 54.7906 19.4238C54.7492 19.4031 54.7285 19.3824 54.7077 19.3616Z" fill="#009859"/>
<path d="M25.3527 12.6247C25.0418 11.9199 24.7308 11.2151 24.4199 10.5103C24.5857 10.4273 24.7308 10.3651 24.9174 10.2822C25.3942 11.3395 25.8503 12.3967 26.3271 13.4332C25.8503 13.7649 25.8088 13.7649 25.4357 13.3918C25.0418 12.9772 24.6479 12.5833 24.254 12.1687C24.1711 12.0858 24.0675 12.0236 23.9224 11.9821C24.2333 12.6869 24.5443 13.3918 24.876 14.1173C24.7101 14.2002 24.565 14.2624 24.3784 14.3453C23.9016 13.2881 23.4456 12.2309 22.9895 11.1944C23.5078 10.8627 23.5078 10.8627 23.8602 11.2358C24.254 11.6504 24.6686 12.065 25.0625 12.4796C25.1454 12.5625 25.2076 12.6247 25.2906 12.7077C25.2906 12.6662 25.332 12.6455 25.3527 12.6247Z" fill="#009859"/>
<path d="M9.34949 42.891C9.12146 42.3312 9.12146 42.3312 9.55679 42.0203C10.1165 41.6264 10.6555 41.2325 11.1945 40.8594C11.1738 40.8387 11.1737 40.7972 11.153 40.7765C10.4067 40.963 9.66044 41.1703 8.89343 41.3776C8.85197 41.1911 8.8105 41.0252 8.76904 40.8387C9.90921 40.5484 11.0079 40.2582 12.1066 39.9473C12.3139 40.5277 12.3139 40.5277 11.8578 40.8387C11.3189 41.2118 10.7799 41.6057 10.2409 41.9788C10.2616 41.9996 10.2616 42.041 10.2823 42.0618C11.0286 41.8752 11.7749 41.6679 12.5419 41.4606C12.5834 41.6471 12.6249 41.7923 12.6663 41.9788C11.5469 42.3105 10.4482 42.6007 9.34949 42.891Z" fill="#009859"/>
<path d="M12.5209 28.5033C12.4794 29.0838 12.4794 29.1045 12.0026 29.1667C11.3807 29.2496 10.7588 29.3326 10.1369 29.4155C10.0747 29.4155 10.0125 29.4569 9.95036 29.5399C10.6966 29.7057 11.4429 29.8923 12.2099 30.0788C12.1685 30.2654 12.127 30.4105 12.0856 30.6178C10.9454 30.3483 9.82597 30.0788 8.72727 29.8301C8.70654 29.7679 8.70654 29.7472 8.70654 29.7264C8.72727 29.374 8.87238 29.1667 9.28699 29.146C9.88816 29.1253 10.4686 29.0009 11.0698 28.918C11.1527 28.918 11.2149 28.8972 11.2771 28.8765C11.2771 28.8558 11.2771 28.8143 11.2978 28.7936C10.5723 28.6277 9.82597 28.4412 9.05896 28.2753C9.10042 28.0887 9.14188 27.9229 9.18334 27.7363C10.3028 27.9851 11.4015 28.2339 12.5209 28.5033Z" fill="#009859"/>
<path d="M9.78482 33.6037C10.1372 33.0855 10.614 33.1684 11.1116 33.2928C11.4432 33.3757 11.6091 33.6244 11.6298 33.9354C11.6505 34.2671 11.6298 34.6195 11.6298 34.9719C11.6298 35.1378 11.5469 35.2207 11.3603 35.2207C10.386 35.1792 9.39095 35.1585 8.41663 35.1378C8.20932 35.1378 8.1264 35.0548 8.14713 34.8268C8.16786 34.5366 8.14713 34.2464 8.16786 33.9561C8.20932 33.6659 8.29224 33.3964 8.62393 33.2928C8.99707 33.1684 9.34949 33.2098 9.66044 33.4586C9.7019 33.5001 9.74336 33.5415 9.78482 33.6037ZM10.6348 34.6195C10.6348 34.6402 10.6348 34.6402 10.6348 34.6195C10.7177 34.6195 10.8006 34.6195 10.8628 34.6195C11.1323 34.661 11.2359 34.5573 11.2152 34.2671C11.1737 33.8732 10.8213 33.6659 10.3445 33.7903C10.0336 33.8732 9.99212 34.1427 9.99212 34.3915C9.99212 34.6817 10.2409 34.5573 10.386 34.5988C10.4689 34.6402 10.5518 34.6195 10.6348 34.6195ZM9.07999 34.5573C9.07999 34.578 9.07999 34.578 9.07999 34.5988C9.24583 34.5573 9.47387 34.578 9.55679 34.4951C9.63971 34.4122 9.57752 34.1842 9.51533 34.0391C9.45314 33.8525 9.03853 33.7903 8.78977 33.8732C8.49955 33.9769 8.54101 34.2256 8.56174 34.4329C8.56174 34.4951 8.76904 34.5366 8.89342 34.578C8.95561 34.578 9.0178 34.5573 9.07999 34.5573Z" fill="#009859"/>
<path d="M56.2208 42.7243C56.3037 42.5377 56.3659 42.3926 56.4281 42.2061C57.5268 42.6207 58.5841 43.0353 59.6828 43.4499C59.5169 43.8852 59.3718 44.2583 59.2267 44.6315C59.0401 45.0876 58.7914 45.2327 58.4389 45.1912C57.9621 45.1498 57.6512 44.901 57.5268 44.4242C56.8842 44.901 56.3245 44.2376 55.6196 44.3205C55.7025 44.0718 55.7855 43.8852 55.8684 43.6572C56.1379 43.7401 56.3866 43.8437 56.6354 43.9267C57.2573 44.1547 57.5268 43.9889 57.6305 43.284C57.1951 43.0975 56.7391 42.9109 56.2208 42.7243ZM58.0036 43.4084C57.9621 43.7401 57.8378 44.051 57.9414 44.2998C58.0036 44.4656 58.3768 44.6108 58.5841 44.5693C58.9365 44.5278 58.9365 44.134 59.0816 43.823C58.7499 43.6779 58.4389 43.5743 58.0036 43.4084Z" fill="#009859"/>
<path d="M13.9106 21.373C14.6569 21.0621 15.0922 21.7669 15.7141 21.8705C15.6727 21.9327 15.6727 21.9742 15.6519 22.0156C15.4032 22.451 15.4032 22.451 14.9471 22.2022C14.7813 22.0986 14.6362 21.9949 14.4496 21.912C14.0972 21.7254 13.6204 21.9949 13.5789 22.3888C13.5789 22.451 13.6618 22.5546 13.7448 22.5961C14.0972 22.8241 14.4496 23.0522 14.8227 23.2802C14.7191 23.446 14.6362 23.5911 14.5118 23.757C13.5375 23.1351 12.5631 22.5339 11.5474 21.8913C11.8376 21.4559 12.1071 21.0206 12.418 20.6267C12.5839 20.3987 12.8326 20.295 13.1229 20.4194C13.4753 20.5645 13.8277 20.7304 13.8691 21.1657C13.9106 21.2486 13.9106 21.2901 13.9106 21.373ZM12.8741 20.9999C12.6875 20.9999 12.2107 21.4974 12.2936 21.5803C12.5217 21.8083 12.8119 21.9742 13.1021 22.1608C13.2472 21.9535 13.4338 21.7462 13.496 21.4974C13.5789 21.3108 13.1643 20.9999 12.8741 20.9999Z" fill="#009859"/>
<path d="M57.6716 35.0127C58.8325 35.0127 59.9519 35.0127 61.1543 35.0127C61.1128 35.531 61.1336 36.0077 61.0299 36.4431C60.9263 36.8991 60.1178 37.065 59.7032 36.7333C59.641 36.6711 59.5788 36.6089 59.4959 36.5053C59.2471 36.9406 58.874 36.9821 58.4594 36.9406C57.9618 36.8991 57.7131 36.6918 57.6301 36.1943C57.6094 36.0907 57.5887 35.987 57.6094 35.9041C57.6509 35.5931 57.6716 35.3029 57.6716 35.0127ZM59.2678 35.531C58.9154 35.531 58.563 35.531 58.2313 35.531C58.1899 35.531 58.1069 35.6346 58.1069 35.6761C58.024 35.987 58.1899 36.2358 58.5215 36.3187C59.0398 36.4638 59.3093 36.215 59.2678 35.531ZM59.7654 35.5517C59.6202 36.1321 59.7861 36.3187 60.3251 36.298C60.6153 36.2772 60.7397 36.1114 60.7397 35.7797C60.7397 35.4688 60.5116 35.5724 60.3665 35.5517C60.1592 35.531 59.9519 35.5517 59.7654 35.5517Z" fill="#009859"/>
<path d="M58.6462 46.1248C58.3974 46.5808 58.1694 47.0162 57.9206 47.41C57.7548 47.6588 57.4646 47.7625 57.1536 47.6795C56.4488 47.493 55.7854 47.1613 55.2257 46.6845C54.8318 46.3528 54.7904 46.0833 54.9977 45.6272C55.1635 45.2748 55.3501 44.9017 55.5366 44.5078C56.5524 45.0675 57.5682 45.5858 58.6462 46.1248ZM55.6818 45.2541C55.3086 45.7516 55.2672 46.0418 55.6403 46.2906C56.0964 46.5808 56.5939 46.8296 57.1121 47.0369C57.4853 47.182 57.817 46.954 57.8999 46.5601C57.9206 46.4979 57.8584 46.3735 57.7962 46.3321C57.1121 45.9797 56.4073 45.6272 55.6818 45.2541Z" fill="#009859"/>
<path d="M50.8308 18.3664C51.6807 17.5579 52.5307 16.7909 53.3806 15.9824C53.5257 16.1275 53.6294 16.2519 53.7745 16.397C53.4428 16.708 53.1319 17.0189 52.7795 17.3506C53.0075 17.5786 53.1941 17.8067 53.4428 18.0554C53.7952 17.7445 54.1269 17.4335 54.4793 17.1226C54.6037 17.2677 54.7281 17.3713 54.8732 17.5372C54.0233 18.3249 53.1941 19.1127 52.3234 19.9212C52.199 19.7761 52.0746 19.6517 51.9295 19.5066C52.3234 19.1334 52.6965 18.781 53.1111 18.3871C52.9246 18.1798 52.7587 17.9725 52.5514 17.8067C52.4892 17.7652 52.3027 17.8067 52.2197 17.8689C51.8881 18.1384 51.5978 18.4493 51.2454 18.7603C51.0796 18.6359 50.9552 18.5115 50.8308 18.3664Z" fill="#009859"/>
<path d="M58.9569 29.6233C59.0399 29.9342 59.1021 30.2037 59.1642 30.4732C59.1642 30.5147 59.1021 30.639 59.0606 30.639C58.5009 30.7841 57.9412 30.8878 57.3814 31.0329C57.34 30.8878 57.3193 30.8049 57.2985 30.7012C57.3814 30.6598 57.4644 30.5976 57.568 30.5354C57.5473 30.4939 57.5266 30.4732 57.5058 30.4525C57.112 30.2866 57.0083 29.9549 57.0083 29.5611C57.0083 29.1672 57.2571 28.9392 57.5887 28.8355C58.2107 28.6489 58.8533 28.4624 59.5167 28.3587C60.1593 28.2551 60.5532 28.6075 60.6568 29.2708C60.7605 29.9342 60.5324 30.2866 59.7861 30.4732C59.7447 30.3281 59.7032 30.1622 59.6618 29.9964C59.7654 29.9342 59.8691 29.8927 59.952 29.8306C60.1593 29.7062 60.2422 29.5403 60.18 29.3123C60.1178 29.0843 59.9727 28.8977 59.7447 28.9599C59.102 29.0843 58.4594 29.2294 57.8168 29.3952C57.568 29.4574 57.4851 29.6647 57.5473 29.9342C57.6095 30.183 57.7753 30.2659 58.0033 30.2866C58.0448 30.2866 58.0863 30.2866 58.1277 30.2866C58.5838 30.2452 58.5838 30.2452 58.5216 29.7684C58.646 29.7062 58.7704 29.6854 58.9569 29.6233Z" fill="#009859"/>
<path d="M60.9258 38.6818C60.9258 39.511 60.4697 39.9257 59.6198 39.8013C59.0808 39.7391 58.5418 39.6562 58.0236 39.511C57.3809 39.3452 57.1736 38.9099 57.298 38.2672C57.4224 37.6661 57.837 37.3551 58.4589 37.438C58.9771 37.5002 59.5161 37.5831 60.0344 37.6868C60.6356 37.8112 60.9258 38.1636 60.9258 38.6818ZM58.5003 38.0185C58.5003 38.0392 58.5003 38.0392 58.5003 38.0599C58.4589 38.0599 58.4174 38.0599 58.376 38.0599C57.9821 38.0599 57.7955 38.1843 57.7541 38.4745C57.7126 38.8062 57.9199 38.9513 58.1894 38.9928C58.7906 39.0964 59.3918 39.1794 59.9929 39.2416C60.2624 39.283 60.4697 39.1172 60.4905 38.8269C60.5112 38.5367 60.3453 38.3916 60.0966 38.3294C59.5576 38.205 59.0186 38.1221 58.5003 38.0185Z" fill="#009859"/>
<path d="M11.6095 22.8857C11.7961 22.9272 11.9827 22.9687 12.1485 23.0516C12.6875 23.3211 13.2472 23.5906 13.7447 23.9223C14.2008 24.2332 14.2423 24.6685 13.9728 25.1868C13.7033 25.7051 13.3301 25.9538 12.8119 25.7465C12.1485 25.477 11.5266 25.1246 10.9047 24.7515C10.5316 24.5234 10.4694 24.1088 10.6145 23.715C10.8218 23.1552 11.1327 22.9065 11.6095 22.8857ZM11.4437 23.4247C11.34 23.5076 11.1949 23.6113 11.112 23.7564C10.9669 23.9844 11.0913 24.2125 11.2986 24.3161C11.8376 24.6063 12.3765 24.8966 12.9363 25.1661C13.1643 25.2697 13.4338 25.249 13.5582 24.9588C13.6825 24.6893 13.5996 24.4405 13.3301 24.3161C12.8326 24.0466 12.3144 23.7979 11.7961 23.5284C11.7339 23.4869 11.6303 23.4869 11.4437 23.4247Z" fill="#009859"/>
<path d="M57.4644 28.2761C56.8632 28.2761 56.573 28.0688 56.4071 27.592C56.2206 27.0323 56.262 26.6799 56.6766 26.4104C57.3607 25.9543 58.1485 25.7263 58.9569 25.6433C59.413 25.6019 59.7032 25.9128 59.8898 26.4311C60.0349 26.9079 59.9313 27.3018 59.5374 27.5505C58.874 27.9651 58.1277 28.1724 57.4644 28.2761ZM57.3193 27.7786C57.9619 27.5505 58.6045 27.3225 59.2264 27.053C59.4545 26.9701 59.4959 26.742 59.413 26.514C59.3301 26.286 59.1435 26.1409 58.9155 26.2031C58.2728 26.3896 57.6302 26.6177 57.0083 26.8457C56.7803 26.9286 56.7181 27.1359 56.7803 27.3639C56.9047 27.6127 57.0498 27.7164 57.3193 27.7786Z" fill="#009859"/>
<path d="M20.6472 12.9765C20.6679 12.3338 21.0411 12.1058 21.4557 11.9192C21.7874 11.7741 22.1813 11.8363 22.4507 12.1473C22.969 12.7277 23.3421 13.4118 23.5909 14.1581C23.6946 14.4898 23.5494 14.8422 23.2592 15.0702C22.8653 15.3604 22.43 15.5885 22.0154 15.2568C21.2899 14.6349 20.896 13.7849 20.6472 12.9765ZM21.7874 12.3546C21.3313 12.3546 21.124 12.6655 21.2899 13.0387C21.5593 13.5776 21.8496 14.0959 22.1605 14.5934C22.3056 14.8422 22.5544 14.9666 22.8446 14.8007C23.1556 14.6349 23.1141 14.3447 22.9897 14.1166C22.7202 13.5984 22.43 13.1008 22.1191 12.6033C22.0154 12.4789 21.8496 12.4167 21.7874 12.3546Z" fill="#009859"/>
<path d="M58.0032 22.2845C57.8788 22.4918 57.7959 22.7406 57.6301 22.8857C57.0496 23.3832 56.3863 23.7771 55.64 23.9844C55.2046 24.1088 54.873 23.9222 54.6035 23.4661C54.334 23.0101 54.334 22.5955 54.6449 22.2845C55.2668 21.6833 55.9924 21.2895 56.8216 21.0822C57.3399 20.937 57.9618 21.6211 58.0032 22.2845ZM57.4228 22.2016C57.4228 21.7663 57.1533 21.5175 56.8216 21.6626C56.2412 21.9321 55.6607 22.2638 55.101 22.5955C54.8522 22.7406 54.8315 22.9893 54.9766 23.2381C55.1217 23.4869 55.3705 23.5076 55.5778 23.3832C56.1168 23.1137 56.6558 22.8028 57.174 22.4918C57.2984 22.4296 57.3813 22.2638 57.4228 22.2016Z" fill="#009859"/>
<path d="M10.3657 45.7512C10.2827 45.5439 10.2205 45.3781 10.1584 45.1915C10.8424 44.922 11.5058 44.6733 12.1692 44.4245C12.3143 44.3623 12.4801 44.3001 12.6252 44.2172C12.874 44.0928 12.9984 43.927 12.8947 43.6367C12.7911 43.3465 12.5838 43.2636 12.3143 43.3465C11.8168 43.5124 11.3192 43.6989 10.8217 43.8855C10.49 44.0099 10.1583 44.1343 9.80594 44.2586C9.72301 44.0721 9.68155 43.927 9.59863 43.7197C10.2205 43.4709 10.8424 43.2429 11.4436 43.0148C11.7131 42.9112 12.0033 42.7661 12.2936 42.7453C12.5216 42.7246 12.8118 42.8075 12.9777 42.9526C13.3093 43.2429 13.4337 43.6575 13.4337 44.0928C13.4337 44.4452 13.185 44.6318 12.8947 44.7562C12.0863 45.0879 11.2363 45.3988 10.3657 45.7512Z" fill="#009859"/>
<path d="M57.2159 39.6777C57.8585 40.0094 58.4804 40.3411 59.1231 40.6728C59.4548 40.8386 59.7864 41.0252 60.1181 41.191C60.284 41.274 60.3669 41.3569 60.284 41.5435C60.2425 41.6471 60.2218 41.7508 60.2011 41.8544C60.1803 42.041 60.0767 42.1032 59.8901 42.1032C58.8329 42.0617 57.7963 42.0203 56.7391 41.9788C56.6976 41.9788 56.6562 41.9581 56.594 41.9581C56.6147 41.8544 56.6355 41.7508 56.6562 41.6678C56.6976 41.4398 56.8013 41.2947 57.0501 41.3983C57.0915 41.4191 57.133 41.3983 57.1744 41.4191C57.589 41.4398 57.8793 41.1288 57.8171 40.7142C57.8171 40.6728 57.7549 40.6106 57.6927 40.5691C57.6098 40.5069 57.5269 40.4655 57.4232 40.424C56.9464 40.2167 56.9464 40.196 57.2159 39.6777ZM59.517 41.5642C59.517 41.5227 59.5377 41.4813 59.5377 41.4605C59.1231 41.2532 58.7085 41.0667 58.2731 40.8386C58.211 41.0667 58.1695 41.2532 58.1073 41.4813C58.6256 41.502 59.0609 41.5435 59.517 41.5642Z" fill="#009859"/>
<path d="M11.6298 35.511C11.6298 35.6353 11.6298 35.7597 11.6506 35.8634C11.692 36.05 11.5884 36.1329 11.4225 36.1743C10.7384 36.3609 10.7384 36.3609 10.8836 37.1279C11.0079 37.1487 11.1531 37.2108 11.2982 37.2108C11.775 37.2108 11.8371 37.2108 11.7542 37.8535C10.8628 37.7084 9.9507 37.584 9.0593 37.4389C8.97638 37.4181 8.91419 37.4181 8.83127 37.3974C8.27155 37.3352 8.20936 37.273 8.25082 36.6926C8.25082 36.5889 8.35447 36.4438 8.43739 36.4231C9.45317 36.1121 10.4897 35.8012 11.5055 35.4902C11.5262 35.4902 11.5677 35.511 11.6298 35.511ZM10.4068 37.1072C10.386 36.8377 10.3653 36.6719 10.3446 36.4438C9.84705 36.5682 9.41171 36.6926 8.95565 36.817C8.95565 36.8584 8.95565 36.8999 8.95565 36.9413C9.41171 36.9828 9.88851 37.045 10.4068 37.1072Z" fill="#009859"/>
<path d="M16.7921 15.6512C16.4811 15.4439 16.4189 15.8378 16.2116 15.9414C16.0458 16.0451 16.0458 16.1694 16.1494 16.3353C16.5226 16.9365 16.8957 17.5376 17.2481 18.1388C17.4555 18.4705 17.6628 18.8022 17.8493 19.1339C18.0152 18.9887 18.1603 18.8644 18.2847 18.7607C18.1188 18.4912 17.9737 18.2425 17.8286 17.9937C17.8908 17.9315 17.953 17.8693 17.9944 17.8071C18.3883 17.4132 18.3883 17.4132 18.8444 17.7242C18.948 17.7864 19.0309 17.8486 19.1346 17.9315C19.2797 17.7864 19.4248 17.662 19.5907 17.5169C18.6578 16.8743 17.7457 16.2524 16.7921 15.6512ZM17.5798 17.6413C17.2896 17.2059 17.0408 16.8121 16.7714 16.4182C16.7921 16.3975 16.8335 16.356 16.8543 16.3353C17.2274 16.584 17.6006 16.8535 18.0359 17.1438C17.8908 17.3096 17.7664 17.4547 17.5798 17.6413Z" fill="#009859"/>
<path d="M50.7895 13.723C50.6859 13.8681 50.603 13.9925 50.4993 14.1376C50.1676 13.9095 49.8774 13.7022 49.5457 13.4742C49.4006 13.6608 49.2348 13.8474 49.1311 14.0339C49.0897 14.0961 49.1519 14.262 49.214 14.3242C49.4213 14.5107 49.6494 14.6558 49.8981 14.8217C49.7945 14.9668 49.7116 15.0704 49.6079 15.2156C49.3177 15.0082 49.0275 14.8217 48.7165 14.5936C48.5092 14.8839 48.3226 15.1326 48.0946 15.4229C48.4263 15.6716 48.7372 15.8996 49.0482 16.1484C48.9446 16.2935 48.8616 16.4179 48.7372 16.563C48.2605 16.2106 47.8044 15.8789 47.2861 15.5265C47.4727 15.257 47.6593 15.0082 47.8458 14.7595C48.2812 14.1583 48.7165 13.5571 49.1519 12.956C49.297 12.7487 49.4006 12.7279 49.6079 12.8938C50.0018 13.184 50.3957 13.4327 50.7895 13.723Z" fill="#009859"/>
<path d="M50.9134 16.8324C51.0793 16.9775 51.2036 17.0812 51.3073 17.1848C50.7269 17.9311 50.1049 17.9725 49.5452 17.3092C49.3172 17.0397 49.255 16.708 49.4208 16.4178C49.8147 15.6922 50.333 15.0911 50.9963 14.5935C51.3488 14.324 51.7634 14.407 52.1158 14.7386C52.5304 15.1118 52.6133 15.4227 52.3853 15.8373C52.3231 15.9617 52.2402 16.0654 52.178 16.169C51.7634 16.0032 51.7634 15.941 51.8877 15.5678C51.9292 15.4227 51.8877 15.174 51.8048 15.1118C51.6804 15.0289 51.3902 15.0081 51.3073 15.091C50.8305 15.5678 50.3952 16.0861 49.9806 16.6044C49.8355 16.7909 49.8562 17.019 50.0635 17.1226C50.1879 17.1848 50.4159 17.1641 50.5817 17.1019C50.7061 17.1019 50.789 16.9568 50.9134 16.8324Z" fill="#009859"/>
<path d="M14.4697 46.1041C14.5734 46.2907 14.6356 46.4358 14.7392 46.6224C13.7027 47.1406 12.6869 47.6589 11.609 48.1979C11.3809 47.7004 11.1736 47.2443 10.9663 46.7675C10.9249 46.6846 10.9456 46.5809 10.9663 46.498C11.1322 46.0419 11.526 45.8554 11.9614 45.7517C12.3345 45.6688 12.604 45.8346 12.8113 46.1456C12.9357 46.3322 13.0186 46.5187 13.143 46.7468C13.5783 46.5395 13.9929 46.3322 14.4697 46.1041ZM12.7698 46.9748C12.6869 46.8089 12.6247 46.6431 12.5211 46.5187C12.376 46.3322 12.1894 46.27 11.9614 46.3322C11.7333 46.4151 11.4431 46.498 11.4638 46.7882C11.4638 46.9955 11.609 47.2236 11.6919 47.4309C11.6919 47.4516 11.8163 47.4516 11.8784 47.4101C12.1687 47.2857 12.4382 47.1406 12.7698 46.9748Z" fill="#009859"/>
<path d="M10.0962 26.4309C10.3449 26.5345 10.5522 26.6382 10.7595 26.6796C10.8217 26.7004 10.9668 26.5967 11.0083 26.5138C11.1327 26.265 11.2156 26.0163 11.34 25.726C11.4851 25.7882 11.6302 25.8297 11.796 25.8919C11.6924 26.1821 11.6095 26.4309 11.4851 26.6796C11.4022 26.8662 11.4436 26.9699 11.6509 27.0528C12.0448 27.1979 12.4179 27.3637 12.8326 27.5296C12.7704 27.7161 12.7082 27.882 12.6252 28.0686C11.5265 27.654 10.4693 27.2393 9.37061 26.804C9.57791 26.2858 9.74375 25.7675 9.97178 25.2907C10.0132 25.2285 10.262 25.2492 10.5108 25.2285C10.3657 25.6846 10.2413 26.037 10.0962 26.4309Z" fill="#009859"/>
<path d="M60.8019 30.7012C60.9677 31.3023 60.9677 31.3024 60.4909 31.5718C60.2422 31.717 59.9727 31.8621 59.641 32.0694C60.0349 32.173 60.3044 32.2767 60.5946 32.3389C61.0921 32.484 61.0921 32.484 61.0921 33.0644C59.952 32.7327 58.8325 32.173 57.568 32.6705C57.5265 32.401 57.5058 32.2352 57.4436 31.9657C58.8118 32.1316 59.7654 31.3438 60.8019 30.7012Z" fill="#009859"/>
<path d="M20.4405 16.8743C20.2954 16.9987 20.1503 17.1023 19.9844 17.2475C19.3833 16.4597 18.7821 15.7134 18.1602 14.9049C17.9529 15.0501 17.7663 15.1952 17.5383 15.3403C17.4346 15.2159 17.3517 15.0915 17.248 14.9464C17.8078 14.5111 18.3467 14.0965 18.9065 13.6611C19.0101 13.7855 19.093 13.9099 19.2174 14.055C19.0308 14.2208 18.8443 14.3867 18.637 14.5525C19.2381 15.3195 19.8186 16.0866 20.4405 16.8743Z" fill="#009859"/>
<path d="M48.8402 12.3549C48.6329 12.8317 48.6329 12.8524 48.2598 12.6036C47.9903 12.4378 47.8867 12.5 47.7623 12.7487C47.3477 13.495 46.9123 14.2206 46.477 15.0083C46.3112 14.9047 46.1453 14.8218 45.9587 14.7181C46.4563 13.8474 46.9331 13.0182 47.4306 12.1476C47.2026 12.0025 47.016 11.8988 46.7879 11.7537C46.8709 11.6086 46.9331 11.4842 47.016 11.3184C47.6379 11.6708 48.2391 12.0025 48.8402 12.3549Z" fill="#009859"/>
<path d="M56.5315 26.1613C56.3449 26.2442 56.2205 26.2857 56.0547 26.3686C55.8059 25.8296 55.5779 25.3114 55.3291 24.7517C56.4071 24.2749 57.4436 23.7981 58.5216 23.3213C58.6045 23.5079 58.6667 23.653 58.7496 23.8603C58.2935 24.0676 57.8582 24.2749 57.4021 24.4822C57.0497 24.648 56.6973 24.8139 56.3449 24.9382C56.0754 25.0419 56.0754 25.1663 56.179 25.3736C56.3242 25.6223 56.4071 25.8918 56.5315 26.1613Z" fill="#009859"/>
<path d="M11.0704 39.8637C10.9253 39.3869 10.9253 39.4076 11.3399 39.2832C11.4436 39.2418 11.5265 39.0967 11.6094 38.993C11.485 38.9308 11.3606 38.7857 11.257 38.7857C10.3449 38.8894 9.43273 39.0345 8.45841 39.1796C8.43768 39.0137 8.41695 38.8272 8.37549 38.6199C8.91447 38.5369 9.43273 38.4333 9.97171 38.3504C10.3656 38.2882 10.7802 38.2467 11.1948 38.1845C11.6716 38.1223 11.9204 38.3296 12.0447 38.8479C12.1484 39.2832 11.9411 39.6564 11.5265 39.76C11.3814 39.8222 11.2155 39.8222 11.0704 39.8637Z" fill="#009859"/>
<path d="M11.9411 31.1153C11.8789 31.7165 11.9825 31.7373 11.3399 31.6129C10.4692 31.447 9.57782 31.2812 8.70715 31.1568C8.41692 31.1153 8.45838 30.9288 8.47911 30.7422C8.49984 30.5349 8.60349 30.5142 8.79007 30.5556C9.84731 30.7422 10.8838 30.9288 11.9411 31.1153Z" fill="#009859"/>
<path d="M19.2168 13.4538C19.4034 13.3294 19.5278 13.2257 19.6936 13.1221C20.3777 14.0549 21.0411 14.9878 21.7252 15.9414C21.5593 16.0658 21.4349 16.1694 21.2484 16.2938C20.5643 15.3402 19.9009 14.4073 19.2168 13.4538Z" fill="#009859"/>
<path d="M43.1811 14.6141C43.0774 14.2203 42.8909 13.8264 42.8909 13.4533C42.8909 12.1887 42.9738 10.9242 43.0153 9.61816C43.1396 9.61816 43.2433 9.61816 43.3262 9.61816C43.3262 11.2973 43.3262 12.935 43.3262 14.5934C43.2847 14.5934 43.2433 14.5934 43.1811 14.6141Z" fill="#009859"/>
<path d="M46.9952 55.9929C46.9537 55.7441 46.7879 55.6197 46.5391 55.6612C45.7928 55.7856 45.0465 55.9099 44.2588 56.0551C44.321 56.3867 44.3832 56.6562 44.4454 57.0086C45.2331 56.8428 45.9587 56.677 46.6842 56.5111C46.9744 56.4697 47.0574 56.2623 46.9952 55.9929Z" fill="#009859"/>
<path d="M24.2122 56.013C23.6317 55.8265 23.0098 55.7021 22.4087 55.557C22.3465 55.5363 22.2221 55.6192 22.2221 55.6606C22.1184 56.0752 22.0355 56.4898 21.9111 56.9666C22.5952 57.091 23.2379 57.2361 23.9012 57.3398C24.3158 57.402 24.5231 57.2154 24.6268 56.8215C24.7097 56.4276 24.5853 56.1374 24.2122 56.013Z" fill="#009859"/>
<path d="M47.2025 58.0658C46.394 58.1902 45.5855 58.3353 44.7356 58.4597C44.8185 58.8536 44.8807 59.1853 44.9429 59.5584C45.1087 59.5377 45.2124 59.517 45.316 59.4962C46.0001 59.3511 46.705 59.206 47.3891 59.0402C47.6586 58.978 47.7622 58.7707 47.7207 58.5012C47.6586 58.2317 47.5342 58.0244 47.2025 58.0658Z" fill="#009859"/>
<path d="M68.762 66.9591C67.2072 63.3105 65.6317 59.6827 64.077 56.0342C63.9526 55.7647 63.8075 55.7233 63.538 55.744C62.5429 55.8477 61.5271 55.9098 60.5321 56.0135C60.2833 56.0342 60.1797 55.9306 60.0967 55.7233C59.4126 54.1685 58.7285 52.6345 58.0237 51.0797C57.9615 50.9553 57.8786 50.8102 57.7542 50.7688C57.2567 50.6029 56.7384 50.4163 56.2202 50.3541C54.9349 50.209 53.6496 50.3956 52.3851 50.6444C49.4 51.2663 46.4148 51.9089 43.4297 52.4894C42.3102 52.7174 41.1493 52.8418 40.0092 52.9869C39.0556 53.1113 38.1227 53.2149 37.1691 53.2978C36.2363 53.3808 35.3034 53.5051 34.3913 53.4429C32.2768 53.2978 30.1623 53.1113 28.0478 52.8418C26.1406 52.593 24.2542 52.2199 22.3677 51.8674C19.8801 51.3907 17.3925 50.8309 14.8841 50.3749C13.8062 50.1883 12.7075 50.209 11.6295 50.5822C11.2978 50.7066 11.049 50.8724 10.9039 51.2248C10.2613 52.7381 9.5772 54.2307 8.91384 55.7233C8.85165 55.8684 8.78945 56.0135 8.56142 55.9928C7.54564 55.8891 6.52986 55.8477 5.51408 55.7233C5.16167 55.6818 4.99583 55.7647 4.85071 56.0964C3.68982 58.8535 2.48747 61.6107 1.30585 64.3678C0.891241 65.3214 0.497368 66.275 0.0827637 67.2493C0.124224 67.2493 0.165683 67.2493 0.165683 67.2493C0.227874 67.2078 0.269335 67.1664 0.331526 67.1456C1.34731 66.4408 2.46674 66.1091 3.68982 66.2335C4.62268 66.3164 5.49335 66.6274 6.36402 67.0005C7.42126 67.4566 8.4785 67.9334 9.53574 68.348C10.3857 68.6797 11.2771 68.7004 12.0234 68.0992C12.4587 67.7468 12.8318 67.2907 13.1221 66.8139C13.9305 65.5287 14.6768 64.2019 15.4231 62.8959C15.5475 62.6679 15.6719 62.6057 15.9206 62.7094C16.6462 62.9788 17.3718 63.2483 18.1181 63.4556C20.1496 63.9946 22.2019 64.4092 24.2957 64.7202C26.6589 65.0726 29.0429 65.3006 31.4476 65.3421C34.1425 65.3836 36.8582 65.3421 39.5738 65.2177C41.3981 65.1348 43.2223 64.9275 45.0259 64.658C47.783 64.2641 50.4987 63.7044 53.1107 62.7094C53.2972 62.6264 53.4009 62.6886 53.5045 62.8752C53.7533 63.3313 54.0228 63.7666 54.2716 64.2019C54.9142 65.2799 55.5361 66.3993 56.2409 67.4358C56.9043 68.4309 57.8993 68.7626 59.0602 68.4516C59.5578 68.3272 60.0553 68.1407 60.5321 67.9334C61.7137 67.4566 62.8746 66.9176 64.0562 66.4823C65.2793 66.0469 66.5438 66.1091 67.7462 66.6481C68.1193 66.8139 68.451 67.042 68.8449 67.2493C68.8242 67.1456 68.8034 67.0627 68.762 66.9591ZM27.4674 57.6926C27.1979 58.5633 26.5553 58.9986 25.6846 59.123C24.8346 59.2474 24.0054 59.0194 23.197 58.8328C22.658 58.7084 22.119 58.584 21.5593 58.4597C21.3934 59.1852 21.2069 59.89 21.0617 60.5741C21.0203 60.8022 20.9166 60.8436 20.7093 60.7814C19.9423 60.5949 19.1546 60.4083 18.3046 60.2217C18.8229 57.9414 19.3619 55.6818 19.8801 53.3808C20.8337 53.6088 21.7251 53.8161 22.6372 54.0234C23.5286 54.2307 24.42 54.438 25.3114 54.6453C25.8919 54.7904 26.4309 55.0392 26.8662 55.433C27.5918 56.0757 27.7369 56.822 27.4674 57.6926ZM31.1988 62.3362C30.8257 62.3155 30.5147 62.2948 30.183 62.2533C29.7062 62.2118 29.2294 62.1911 28.7527 62.1704C28.5454 62.1496 28.4624 62.0874 28.4624 61.8387C28.6075 60.0559 28.7112 58.2524 28.8356 56.4696C28.8563 56.1171 28.877 55.7647 28.9185 55.4123C28.9392 55.3294 29.0636 55.1636 29.1258 55.1636C29.955 55.205 30.7842 55.2672 31.6756 55.3294C31.5098 57.6719 31.3439 59.973 31.1988 62.3362ZM40.5689 57.0707C39.8641 57.0707 39.18 57.0915 38.4959 57.0707C38.1849 57.0707 38.0813 57.1537 38.0813 57.4853C38.1434 58.9157 38.1849 60.3668 38.2264 61.7972C38.2264 61.9423 38.2264 62.1082 38.2264 62.274C38.1227 62.2948 38.0398 62.3155 37.9569 62.3155C37.252 62.3362 36.5472 62.3569 35.8217 62.3984C35.5522 62.4191 35.49 62.3155 35.4692 62.0667C35.4278 60.5949 35.3863 59.123 35.3241 57.6512C35.3241 57.5268 35.3034 57.3817 35.3034 57.2573C34.4742 57.2573 33.645 57.2573 32.7743 57.2573C32.7536 56.7183 32.7329 56.1793 32.7536 55.6196C32.7536 55.5782 32.9194 55.4952 33.0231 55.4745C34.0596 55.433 35.0961 55.3916 36.1533 55.3501C37.5008 55.3087 38.8275 55.2672 40.175 55.205C40.4652 55.1843 40.5689 55.2879 40.5482 55.5782C40.5482 56.0135 40.5689 56.4903 40.5689 57.0707ZM50.623 59.2889C50.3535 60.0973 49.6694 60.429 48.9024 60.5949C47.472 60.9058 46.0209 61.1753 44.5698 61.4655C43.9272 61.5899 43.2638 61.7143 42.5797 61.8594C42.4553 61.2168 42.331 60.6156 42.2066 60.0144C41.8956 58.4597 41.6054 56.8842 41.2944 55.3294C41.253 55.0806 41.2737 54.9563 41.5639 54.9148C43.4711 54.5624 45.3576 54.1892 47.2647 53.8368C47.6172 53.7746 47.9696 53.7954 48.322 53.7954C48.9232 53.8161 49.3792 54.1063 49.6073 54.6868C49.856 55.3294 49.8767 55.9306 49.4207 56.511C49.3585 56.5939 49.2756 56.6769 49.1719 56.7805C50.4157 57.1329 50.9962 58.1694 50.623 59.2889Z" fill="#009859"/>
<path d="M53.5667 62.8131C53.5667 62.8131 60.221 60.9059 62.7709 61.6936C62.7709 61.6936 64.2842 63.6838 60.2832 65.4044C57.2359 66.5031 55.9092 66.8969 55.9092 66.8969" fill="#007D44"/>
<path d="M15.5887 62.6676C15.5887 62.6676 8.93427 60.7604 6.38445 61.5481C6.38445 61.5481 4.87115 63.5382 8.87208 65.2588C11.9194 66.3576 13.2462 66.7514 13.2462 66.7514" fill="#007D44"/>
<path d="M55.5563 37.6871C55.4112 38.2468 55.2661 38.8065 55.121 39.3869C55.0795 39.5942 54.9759 39.6979 54.7478 39.7186C53.0065 39.8015 51.2652 39.9052 49.5445 40.0088C48.1763 40.0918 46.8081 40.1747 45.44 40.2576C44.8802 40.2991 44.3413 40.3198 43.7815 40.3613C43.6986 40.61 43.7608 40.7137 44.0096 40.6929C44.9839 40.6515 45.9582 40.61 46.9325 40.5686C48.3215 40.5064 49.6897 40.4234 51.0786 40.3405C52.0944 40.2783 53.0894 40.2161 54.1052 40.1747C54.354 40.154 54.6027 40.1747 54.9137 40.1747C54.8307 40.4649 54.7686 40.7344 54.6649 41.0039C54.4783 41.5221 54.2918 42.0404 54.0637 42.5587C54.0223 42.6623 53.8564 42.7867 53.732 42.8074C52.0322 42.8903 50.353 42.9733 48.6531 43.0355C47.1191 43.0976 45.5851 43.1598 44.0303 43.2428C43.9474 43.2428 43.8645 43.2635 43.7401 43.2842C43.7401 43.4086 43.7401 43.5122 43.7401 43.6781C47.0776 43.533 50.3945 43.3879 53.7528 43.222C53.6906 43.4086 53.6491 43.5537 53.5869 43.6781C53.2138 44.4244 52.7992 45.1499 52.426 45.8755C52.3224 46.0828 52.1773 46.1657 51.9285 46.1657C49.3165 46.2279 46.7045 46.2901 44.0718 46.3523C43.7608 46.3523 43.7608 46.4974 43.823 46.7669C46.5387 46.684 49.2543 46.6218 52.0736 46.5389C51.4103 47.3681 50.8091 48.1351 50.2079 48.9021C49.9799 48.8606 49.7518 48.7985 49.5238 48.8192C48.7983 48.8399 48.0727 48.9228 47.3471 48.9228C46.4557 48.9436 45.5643 48.9021 44.6522 48.9228C44.3827 48.9228 44.1132 48.9643 43.8437 49.0265C43.7608 49.0472 43.6986 49.1923 43.5742 49.3374C44.1961 49.3374 44.6937 49.3374 45.2119 49.3374C46.7667 49.3167 48.3007 49.2752 49.8555 49.2545C49.586 49.5447 49.3372 49.8142 49.0677 50.1045C48.9019 50.2703 48.7361 50.4569 48.5702 50.6227C48.5288 50.6642 48.4873 50.6849 48.4251 50.6849C47.0362 50.9544 45.6473 51.2446 44.2583 51.4934C43.1389 51.7007 42.0195 51.8458 40.9 52.0324C40.8793 52.0324 40.8378 52.0116 40.7964 52.0116C40.7964 46.6218 40.7964 41.2319 40.7964 35.8213C41.7292 35.7591 42.6621 35.697 43.6364 35.6348C43.6364 35.8006 43.6572 35.9043 43.6572 36.0286C43.6572 36.692 43.6572 37.3346 43.6572 37.998C43.6572 38.1639 43.6779 38.2882 43.8852 38.2675C44.7559 38.2053 45.6265 38.1431 46.4972 38.0809C46.8911 38.0602 47.2642 38.0187 47.6581 37.998C48.4666 37.9565 49.2958 37.9151 50.1043 37.8529C51.2444 37.77 52.3639 37.6871 53.504 37.6041C54.0015 37.5627 54.4991 37.5627 54.9966 37.5212C55.1624 37.5005 55.349 37.4798 55.5148 37.459C55.5563 37.5005 55.5563 37.5834 55.5563 37.6871Z" fill="#54BD81"/>
<path d="M41.2317 0C41.2317 0.684097 41.2317 1.34747 41.2317 2.05229C39.4489 2.17667 37.7697 2.65347 36.1113 3.27538C34.4529 3.89728 32.9188 4.68503 31.5092 5.763C31.4885 5.72154 31.447 5.70081 31.4263 5.65935C31.5092 5.5557 31.5921 5.47278 31.6958 5.36913C32.6493 4.49846 33.5822 3.58633 34.7016 2.90223C36.6088 1.72061 38.6197 0.767018 40.7963 0.186572C40.9 0.165842 41.0036 0.0621907 41.0865 0C41.1487 0 41.1902 0 41.2317 0Z" fill="#54BD81"/>
<path d="M26.8862 19.0092C26.6996 14.2205 29.3531 8.56115 34.4527 5.41016C34.9917 6.55032 35.5721 7.66975 36.0489 8.83064C36.5257 9.99154 36.8989 11.1732 37.3135 12.3548C36.6294 12.5621 35.9245 12.7487 35.2197 12.9767C34.5356 13.2047 33.8515 13.4535 33.1882 13.723C32.0065 14.2205 30.8456 14.8009 29.8506 15.5887C29.1043 16.1691 28.4202 16.8118 27.7776 17.5166C27.4251 17.9105 27.1971 18.4495 26.8862 19.0092Z" fill="#54BD81"/>
<path d="M28.5862 46.5596C29.5812 46.3316 30.5556 46.0828 31.5713 45.917C32.442 45.7719 33.3127 45.6682 34.1833 45.6061C35.1577 45.5439 36.132 45.5646 37.1063 45.5231C37.5624 45.5024 38.0392 45.4817 38.4952 45.4609C38.6818 45.4609 38.7647 45.5231 38.7647 45.7097C38.7647 47.8449 38.7647 50.0009 38.7647 52.1361C38.7647 52.1568 38.744 52.1983 38.7233 52.2604C37.5831 52.3641 36.4429 52.447 35.2199 52.5507C35.2199 50.8093 35.2199 49.1302 35.2199 47.4303C34.3906 47.1194 33.6236 46.7255 32.8151 46.5596C32.1103 46.4145 31.3433 46.4974 30.597 46.4974C30.3068 46.4974 29.9958 46.5182 29.7056 46.5389C29.3325 46.5596 28.9593 46.5804 28.5862 46.5804C28.6069 46.5804 28.5862 46.5804 28.5862 46.5596Z" fill="#54BD81"/>
<path d="M38.7646 40.5073C38.7646 41.0878 38.7646 41.6475 38.7646 42.2072C38.7646 42.2901 38.6195 42.3938 38.5366 42.4145C37.811 42.4974 37.0855 42.5596 36.3599 42.6218C35.3441 42.7255 34.3491 42.8084 33.3333 42.9535C32.1932 43.0986 31.053 43.2852 29.9128 43.4925C29.0214 43.6583 28.1715 43.99 27.3423 44.4046C27.1972 44.4875 27.0313 44.5497 26.824 44.6534C26.824 44.1559 26.8033 43.6998 26.8448 43.2645C26.8655 43.1193 27.0106 42.9742 27.1557 42.8706C28.13 42.1658 29.2702 41.8755 30.4104 41.5853C31.592 41.2951 32.7943 41.0463 33.9967 40.7976C34.5149 40.6939 35.0539 40.6939 35.5722 40.6524C36.5672 40.5903 37.5623 40.5488 38.5573 40.5073C38.6195 40.4659 38.6817 40.4866 38.7646 40.5073Z" fill="#54BD81"/>
<path d="M26.8237 32.0903C26.8652 31.655 26.8652 31.2197 26.9274 30.7843C26.9688 30.4319 27.1969 30.1832 27.4664 29.9551C28.0261 29.4991 28.5443 28.9808 29.1248 28.5662C30.182 27.7992 31.4051 27.2809 32.6489 26.9078C33.9135 26.5346 35.1987 26.1822 36.484 25.8713C37.2096 25.7054 37.9559 25.6847 38.7436 25.5811C38.7436 26.2859 38.7436 26.9285 38.7229 27.5504C38.7229 27.6126 38.5363 27.7163 38.4327 27.737C37.2925 27.8821 36.1523 27.965 35.0329 28.1723C33.8305 28.4004 32.6282 28.6906 31.5088 29.2088C30.7832 29.5405 30.0369 29.81 29.3321 30.1832C28.4821 30.6185 27.7566 31.2197 27.114 31.9038C27.0518 31.9867 26.9688 32.0489 26.8859 32.1111C26.8859 32.1111 26.8445 32.0903 26.8237 32.0903Z" fill="#54BD81"/>
<path d="M38.2256 15.5059C38.35 16.2107 38.4744 16.8533 38.5988 17.5374C38.0183 17.6618 37.4793 17.7862 36.9403 17.8691C35.5721 18.0764 34.2661 18.4496 33.0016 18.9885C31.9651 19.4446 30.9286 19.9214 29.9543 20.5018C28.7519 21.2067 27.7569 22.181 27.0728 23.4248C27.0313 23.487 27.0106 23.5285 26.9691 23.5906C26.9484 23.6114 26.9276 23.6321 26.8447 23.715C26.9069 23.1139 26.7203 22.5541 27.1142 22.0359C27.4044 21.642 27.5496 21.1237 27.7983 20.6884C28.4824 19.5897 29.4982 18.8642 30.5554 18.1801C32.4004 16.9777 34.4734 16.3973 36.5465 15.7754C37.0647 15.651 37.6452 15.6095 38.2256 15.5059Z" fill="#54BD81"/>
<path d="M26.8659 28.1313C26.8659 27.6752 26.7623 27.2399 26.8867 26.9289C27.1147 26.39 27.4256 25.851 27.8402 25.4364C29.4779 23.7572 31.4266 22.5341 33.6447 21.7878C34.9093 21.3732 36.2153 21.0623 37.5005 20.7306C37.8944 20.627 38.309 20.6477 38.7443 20.627C38.7443 21.3732 38.7443 22.0573 38.7443 22.8036C38.2468 22.8658 37.7493 22.9487 37.2518 22.9902C35.8007 23.1353 34.3703 23.4463 33.0021 23.9852C32.1107 24.3377 31.1985 24.6901 30.3486 25.1254C29.167 25.7266 28.1305 26.4936 27.3427 27.5716C27.2183 27.7374 27.0732 27.8825 26.8659 28.1313Z" fill="#54BD81"/>
<path d="M38.7648 35.6143C38.7648 36.2569 38.7648 36.7752 38.7648 37.2934C38.7648 37.48 38.7026 37.6251 38.4539 37.6251C37.9149 37.6458 37.3552 37.708 36.8162 37.7287C35.2407 37.7702 33.7066 38.019 32.1933 38.3714C31.1775 38.6201 30.1618 38.8482 29.2082 39.2213C28.4204 39.5115 27.6741 39.9883 26.9278 40.3822C26.6169 39.6359 26.8864 38.7652 27.6534 38.2885C29.0423 37.4178 30.5349 36.7752 32.1519 36.4849C33.4786 36.2569 34.8261 36.0496 36.1528 35.8837C36.982 35.7594 37.8527 35.6972 38.7648 35.6143Z" fill="#54BD81"/>
<path d="M26.8447 36.4019C26.8447 35.8629 26.8447 35.4483 26.8447 35.013C26.8447 34.9715 26.8655 34.9093 26.8862 34.8679C27.9434 33.707 29.1665 32.8156 30.6591 32.2766C32.0687 31.7791 33.4784 31.323 34.971 31.095C36.1319 30.9084 37.3135 30.784 38.4951 30.6182C38.578 30.6182 38.6402 30.6182 38.7646 30.6389C38.7646 31.2401 38.7646 31.8413 38.7646 32.4424C38.7646 32.5046 38.661 32.6083 38.578 32.629C37.5001 32.7534 36.4221 32.8156 35.3648 32.9814C34.4527 33.1265 33.5406 33.3338 32.6492 33.5826C31.509 33.8935 30.3481 34.1423 29.2909 34.702C28.4202 35.1166 27.5703 35.5934 26.8447 36.4019Z" fill="#54BD81"/>
<path d="M36.277 8.20895C36.0075 7.60777 35.738 7.04805 35.4893 6.48834C37.355 5.86643 39.2 5.26525 41.2108 5.30672C41.2108 5.97008 41.2108 6.59199 41.2108 7.29681C39.5109 7.19316 37.9147 7.66996 36.277 8.20895Z" fill="#54BD81"/>
<path d="M41.2319 9.76367C41.2319 10.3234 41.2526 10.8209 41.2111 11.3184C41.2111 11.4221 41.0038 11.5465 40.8795 11.5672C40.1539 11.7123 39.4491 11.8574 38.7235 11.9611C38.454 12.0025 38.1845 12.0233 37.8943 12.0233C37.7906 12.0233 37.6455 11.8989 37.6041 11.816C37.459 11.4221 37.3346 11.0282 37.2102 10.5929C38.5162 10.1161 39.8429 9.95024 41.2319 9.76367Z" fill="#54BD81"/>
</svg>
