<svg xmlns="http://www.w3.org/2000/svg" width="281" height="113" fill="none" viewBox="0 0 281 113"><g filter="url(#a)"><path fill="#fff" d="M0 16.828c.719-.066 1.446-.2 2.164-.2 7.895 0 15.799-.215 23.685.075 13.137.482 23.116 6.15 29.494 16.97 4.143 7.036 5.207 14.654 4.134 22.57-.698 6.126-3.126 11.968-7.035 16.927-6.493 8.04-15.08 12.447-25.901 12.787-8.454.233-16.925.125-25.397.175H0v-.515c.32-1.394.71-2.763.95-4.149a105.6 105.6 0 0 0 1.126-17.7v-29.1a78 78 0 0 0-.382-8.638c-.354-2.97-1.1-5.89-1.676-8.837zm12.321 34.403v26.968c0 1.045-.08 2.083 0 3.128.08 1.046.453 1.402 1.544 1.394 3.548 0 7.096 0 10.644-.166 5.075-.224 9.9-2.127 13.616-5.369 4.33-3.75 6.91-8.472 8.48-13.716a45.2 45.2 0 0 0 1.278-17.799c-.447-4.935-2.023-9.724-4.622-14.04-4.435-7.26-10.964-11.31-20.047-11.434-2.99-.042-5.979-.075-8.968-.133-1.774 0-1.925.05-1.925 1.701zM77.565 86.87c-1.464-.257-2.936-.44-4.373-.788-6.077-1.502-9.98-5.07-11.044-10.912-1.127-6.157 1.162-11.11 6.928-14.388a48 48 0 0 1 6.679-2.755 5.7 5.7 0 0 1 1.872-.24h11.079c1.17 0 2.333.215 3.504.24.612 0 1.224-.24 1.836-.24h9.758v17.98a15.6 15.6 0 0 0 .195 2.664c.417 2.49 1.916 3.527 4.604 3.32.434-.042.887-.117 1.383-.183a3.7 3.7 0 0 1-1.233 2.49 8.6 8.6 0 0 1-3.121 1.936 9.1 9.1 0 0 1-3.707.499 8.95 8.95 0 0 1-3.578-1.036 8.3 8.3 0 0 1-2.757-2.37c-.648-.913-1.118-1.918-1.775-2.98-.31.266-.647.523-.94.83-3.433 3.32-7.478 5.502-12.49 5.892-.08 0-.15.083-.23.124zm16.33-17.915h.062v-5.983c0-1.386-.275-1.66-1.72-1.908a20 20 0 0 0-1.411-.2c-3.442-.414-6.866-.497-10.174.648-4.436 1.543-7.691 4.149-8.348 8.845a9.4 9.4 0 0 0 .459 4.425 9.9 9.9 0 0 0 2.458 3.804 10.8 10.8 0 0 0 3.976 2.435 11.4 11.4 0 0 0 4.71.588c3.586-.351 6.885-1.994 9.199-4.58a2.8 2.8 0 0 0 .763-1.66c.08-2.124.026-4.273.026-6.414M199.089 86.87a50 50 0 0 1-5.234-1.253c-6.36-2.232-9.952-7.145-9.801-13.476a12.3 12.3 0 0 1 1.377-5.516 13.15 13.15 0 0 1 3.759-4.441c2.589-2.035 5.651-3.475 8.941-4.207.494-.113 1-.169 1.508-.166h10.6c1.331 0 2.661.207 3.992.232.674 0 1.348-.232 2.031-.232h9.447c.054 0 .116.05.284.124v18.421q.014 1.161.213 2.307c.045.47.193.927.434 1.341a3.5 3.5 0 0 0 .972 1.066 3.8 3.8 0 0 0 1.347.614c.489.115.998.135 1.496.058.506-.042 1.003-.117 1.561-.183.061.38.024.767-.107 1.13a2.4 2.4 0 0 1-.647.961 7.4 7.4 0 0 1-2.385 1.887 7.9 7.9 0 0 1-2.999.818c-4.435.432-7.398-1.286-9.483-5.41l-.541-1.062c-2.639 3.266-6.429 5.552-10.698 6.456-.94.224-1.898.365-2.856.547zm16.96-17.849v-6.34c0-.78-.283-1.352-1.162-1.501-3.911-.673-7.85-.971-11.709.215-5.153 1.577-9.243 5.137-8.764 11.16.243 2.615 1.571 5.035 3.701 6.742s4.891 2.564 7.689 2.386c3.65-.32 7.026-1.95 9.42-4.547.276-.265.491-.58.633-.925.141-.345.207-.713.192-1.083-.008-2.074.009-4.099 0-6.107M128.373 86.87c-1.49-.233-2.989-.432-4.435-.698a52 52 0 0 1-10.822-3.402 1.9 1.9 0 0 1-.944-.715 1.7 1.7 0 0 1-.298-1.102v-8.298q.1-.671.364-1.303c1.481 1.544 2.785 2.988 4.187 4.34 3.424 3.32 7.176 6.182 12.09 7.327 1.841.512 3.792.564 5.66.148a11.2 11.2 0 0 0 4.985-2.513 6.9 6.9 0 0 0 1.756-2.395 6.49 6.49 0 0 0-.219-5.674 7 7 0 0 0-1.936-2.27 23.7 23.7 0 0 0-7.505-3.61c-4.506-1.518-9.074-2.92-13.306-5.177a13.1 13.1 0 0 1-4.523-3.66q.383-.06.771-.083h20.145c.318-.014.636.022.94.108a41 41 0 0 1 8.445 3.9 12.1 12.1 0 0 1 4.185 4.305 11.2 11.2 0 0 1 1.475 5.653c.115 4.87-1.633 9.028-6.103 11.824a22.2 22.2 0 0 1-9.66 3.079c-.311 0-.612.116-.887.174zM281 86.156c-2.599 0-5.207 0-7.806.1a7.65 7.65 0 0 1-3.628-.6 7.1 7.1 0 0 1-2.839-2.197c-1.508-1.875-2.901-3.834-4.391-5.725a3489 3489 0 0 0-12.631-15.916c-1.216-1.526-1.145-1.95.363-3.203 3.646-3.012 7.301-6.024 10.893-9.127 1.63-1.265 2.851-2.93 3.525-4.807a10 10 0 0 0 .29-5.823c0-.166 0-.348-.062-.572h15.496c-.585.564-1.038 1.07-1.57 1.502L258.983 55.66c-1.33 1.063-1.357 1.303-.284 2.63l20.944 25.94c.461.572.887 1.145 1.357 1.718zm-113.081.714a30 30 0 0 1-3.451-.946c-1.936-.695-3.613-1.904-4.825-3.478a9.55 9.55 0 0 1-1.996-5.384c-.355-4.539-.319-9.128-.426-13.65v-5.576h9.838v1.037c.062 4.979.195 9.875.159 14.82 0 4.622 3.504 7.908 9.465 6.48 2.297-.547 4.533-1.319 6.857-2.007a14.4 14.4 0 0 1-3.415 4.564c-2.265 2.165-5.23 3.571-8.436 3.999q-.181.045-.337.141z"/><path fill="#f5bb18" d="M125.1 46.857h10.37V31.996c0-.764.186-1.062 1.055-1.03 1.588.067 3.185.059 4.773 0 .834 0 1.02.275 1.02.988v14.912c.381 0 .683.04.985.04h10.511c.887 0 1.073-.231 1.065-1.003V30.7h6.271c.177 0 .479.54.488.83v15.144q.327.09.665.116h6.014c.728 0 .941-.258.932-.888 0-4.771 0-9.534-.08-14.297 0-.83.248-1.03 1.082-1.013 1.872.058 3.744 0 5.713 0V46.79h7.034c.177 0 .488-.548.488-.83V30.618h4.072c2.661 0 2.661 0 2.661 2.49V52.69c-.382 0-.71.074-1.038.074H78.211c-6.822 0-12.694-6.638-11.878-13.01.816-6.374 7.292-11.078 14.193-10.664.639 0 .931.224.887.83v4.332a27 27 0 0 0-2.723 0 7.7 7.7 0 0 0-3.091 1.015 7.1 7.1 0 0 0-2.312 2.172 6.6 6.6 0 0 0-1.072 2.896c-.12 1.029.01 2.07.38 3.044.331.57.763 1.084 1.278 1.519 1.455 1.51 3.238 1.892 5.42 1.875 11.115-.091 22.176 0 33.335 0 1.428 0 2.857-.1 4.285-.216a4 4 0 0 0 2.437-1.188c.632-.66.985-1.511.996-2.396a3.43 3.43 0 0 0-.937-2.369 3.9 3.9 0 0 0-2.381-1.191c-1.322-.133-2.661-.166-4-.183-4.968-.058-9.927 0-14.894-.132-5.322-.125-8.108-3.668-8.542-7.9a13.9 13.9 0 0 1 .558-6.016 6.4 6.4 0 0 1 1.328-2.35 6.9 6.9 0 0 1 2.22-1.658q8.197-3.908 16.384-7.841c.302-.141.613-.257.941-.39 0 1.925.044 3.759-.045 5.584 0 .316-.541.697-.887.896-4.293 2.2-8.613 4.365-12.906 6.547-2.147 1.096-2.98 2.788-2.253 4.656.21.663.637 1.249 1.22 1.674a3.7 3.7 0 0 0 2.035.699c3.495.124 6.999.124 10.494.215 2.954.075 5.917.117 8.87.324 4.436.307 6.902 2.49 7.771 6.638a13.7 13.7 0 0 1-.071 5.767c-.053.316-.089.548-.151.913"/><path fill="#fff" d="M248.497 85.958h-13.74a65 65 0 0 0 1.375-6.979c.363-3.9.434-7.833.621-11.75V36.42c0-3.568-.054-7.144-.213-10.704a28.5 28.5 0 0 0-1.712-8.298c-.399-1.128-.258-1.369 1.002-1.535 3.052-.406 6.103-.83 9.163-1.178 1.136-.141 1.668.348 1.668 1.402v40.278c0 5.419 0 10.837.08 16.255a46.7 46.7 0 0 0 1.632 11.476q.125.478.195.963c-.044.266-.071.54-.071.88"/><path fill="#f5bb18" d="M196.545 39.19v-5.85h22.061a9.1 9.1 0 0 1 3.859.685 8.6 8.6 0 0 1 3.131 2.22c3.912 4.422 2.581 12.794-2.546 15.914a4.8 4.8 0 0 1-2.306.689c-7.824.05-15.657 0-23.481 0-.195 0-.381 0-.674-.05 0-.29-.062-.572-.062-.83v-4.107c0-.755.248-.962 1.038-.954h17.847c1.366 0 2.741.05 4.107 0a2.53 2.53 0 0 0 1.482-.598c1.863-1.75 2.111-3.775.754-5.443a3.4 3.4 0 0 0-1.202-1 3.6 3.6 0 0 0-1.557-.377c-2.608-.05-5.216-.142-7.824-.166-4.515-.05-9.03-.05-13.554-.067zm-64.294-21.035a3.75 3.75 0 0 1-.359 1.543 4 4 0 0 1-.974 1.288 4.3 4.3 0 0 1-1.435.83c-.533.184-1.1.265-1.667.24a4.47 4.47 0 0 1-3.069-1.074c-.831-.723-1.323-1.724-1.367-2.785.026-1.077.507-2.1 1.339-2.846a4.52 4.52 0 0 1 3.097-1.129 4.6 4.6 0 0 1 1.667.257 4.3 4.3 0 0 1 1.432.84c.413.366.743.806.973 1.292.229.488.353 1.012.363 1.544m2.013-.025c.011-.53.135-1.054.366-1.539s.561-.922.974-1.286a4.3 4.3 0 0 1 1.431-.833 4.5 4.5 0 0 1 1.664-.25 4.6 4.6 0 0 1 1.672.278 4.4 4.4 0 0 1 1.431.857c.412.37.741.814.97 1.304s.352 1.017.362 1.552a3.8 3.8 0 0 1-.395 1.528c-.239.48-.576.91-.994 1.268a4.4 4.4 0 0 1-1.438.813 4.6 4.6 0 0 1-1.661.233 4.5 4.5 0 0 1-1.665-.245 4.2 4.2 0 0 1-1.426-.838 3.9 3.9 0 0 1-.958-1.297 3.7 3.7 0 0 1-.333-1.545m115.219-6.488-3.548.381a1.4 1.4 0 0 1-.523 0 .4.4 0 0 1-.22-.107.36.36 0 0 1-.105-.21.34.34 0 0 1 .05-.227.38.38 0 0 1 .186-.153c.158-.07.33-.11.506-.116l7.096-.763c.328 0 .789-.175.887.315s-.417.448-.745.481c-1.215.15-2.404.274-3.584.399m-17.262 1.875-3.45.373a3 3 0 0 1-.382 0c-.284 0-.621 0-.603-.34 0-.158.302-.315.488-.448s.186 0 .275-.042l7.043-.763c.346 0 .834-.183.887.332s-.47.431-.807.473a49 49 0 0 1-3.451.415m11.629-4.423c-.346 0-.612-.257-.514-.498q.098-.204.257-.373l4.551-5.369c.088-.108.168-.249.292-.29a.6.6 0 0 1 .47.041.53.53 0 0 1 .125.423.66.66 0 0 1-.195.307l-4.524 5.328a6 6 0 0 1-.462.431m-13.022-4.73c.266.175.514.307.745.473 1.464 1.07 2.918 2.158 4.373 3.236.417.316.843.614 1.251.93.23.182.434.398.177.688s-.488.117-.709-.05a909 909 0 0 1-5.997-4.455.55.55 0 0 1-.195-.44c.018-.133.204-.24.355-.382m9.368-.331c.142 1.12.284 2.24.417 3.319 0 .124.071.265 0 .357s-.213.373-.346.39c-.133.016-.355-.15-.435-.282a1.4 1.4 0 0 1-.133-.614c-.266-2.092-.523-4.15-.78-6.265a1.2 1.2 0 0 1 0-.531c.092-.168.219-.318.372-.44q.23.19.417.415c.062.083.044.232.062.348zM37.123 57.305a5.5 5.5 0 0 1-2.91-.803 4.97 4.97 0 0 1-1.941-2.183 4.6 4.6 0 0 1-.314-2.823 4.8 4.8 0 0 1 1.42-2.509 5.33 5.33 0 0 1 2.672-1.345 5.55 5.55 0 0 1 3.02.274c.956.37 1.773.996 2.346 1.8.575.805.88 1.75.878 2.718a4.5 4.5 0 0 1-.373 1.866 4.8 4.8 0 0 1-1.118 1.586 5.2 5.2 0 0 1-1.687 1.056 5.5 5.5 0 0 1-1.993.362"/><path fill="#fff" d="M1.987 93.409H8.25c4.124 0 6.626 2.854 6.626 7.526s-2.52 7.551-6.626 7.551H1.987zm5.908 13.384c3.21 0 4.905-2.008 4.905-5.808s-1.694-5.859-4.905-5.859H4.063v11.692zm19.107-3.559c0 3.56-1.987 5.734-5.323 5.734-3.335 0-5.322-2.158-5.322-5.809s1.96-5.808 5.26-5.808 5.384 2.115 5.384 5.883m-8.631-.083c0 2.63 1.268 4.223 3.344 4.223s3.344-1.593 3.344-4.149c0-2.696-1.25-4.281-3.344-4.281s-3.336 1.61-3.336 4.207zm20.59.083c0 3.56-1.978 5.734-5.278 5.734s-5.322-2.158-5.322-5.809 1.96-5.808 5.26-5.808 5.34 2.115 5.34 5.883m-8.63-.083c0 2.63 1.277 4.223 3.352 4.223s3.345-1.593 3.345-4.149c0-2.696-1.251-4.281-3.345-4.281-2.093 0-3.353 1.61-3.353 4.207M42.8 97.648v1.967c1.074-1.618 1.988-2.274 3.185-2.274q.362.004.719.058v1.76c-2.564-.067-3.726 1.095-3.743 3.7v5.626H41.08V97.648zm11.638 3.022c-.044-1.137-.887-1.734-2.342-1.734s-2.475.613-2.475 1.659c0 .772.648 1.22 2.165 1.552l1.774.398c2.324.515 3.3 1.402 3.3 3.02 0 2.092-1.872 3.436-4.817 3.436s-4.568-1.203-4.657-3.709h1.96c.012.505.202.992.541 1.385.64.519 1.471.781 2.316.731 1.623 0 2.723-.689 2.723-1.718 0-.772-.515-1.203-1.774-1.494l-1.774-.39c-2.768-.622-3.7-1.427-3.7-3.128 0-2 1.775-3.32 4.48-3.32s4.214 1.196 4.231 3.32zm8.499-1.62H61.02v7.469c0 .763.222.971 1.029.971q.449.01.887-.083v1.443a8 8 0 0 1-1.517.15c-1.446 0-2.244-.606-2.244-1.718v-8.198h-1.588v-1.436h1.588V94.67h1.845v2.98h1.916zm2.616 4.598c-.06.814.158 1.624.62 2.315a3.15 3.15 0 0 0 1.207 1.053 3.4 3.4 0 0 0 1.606.358 3.2 3.2 0 0 0 1.936-.583 2.85 2.85 0 0 0 1.115-1.591h1.872c-.172 1.101-.782 2.101-1.708 2.799a4.94 4.94 0 0 1-3.286.968c-3.3 0-5.323-2.174-5.323-5.75s2.094-5.875 5.323-5.875a5.14 5.14 0 0 1 2.848.725 4.65 4.65 0 0 1 1.88 2.129 8.8 8.8 0 0 1 .47 3.452zm6.6-1.41c0-1.942-1.322-3.32-3.212-3.32s-3.193 1.303-3.344 3.32zm3.724-4.589h1.685v1.66a4.1 4.1 0 0 1 1.581-1.445 4.45 4.45 0 0 1 2.145-.497c3.105 0 5.02 2.273 5.02 5.916 0 3.452-1.96 5.709-4.994 5.709a4.54 4.54 0 0 1-1.984-.405 4.25 4.25 0 0 1-1.564-1.213V113h-1.89zm1.872 5.501c0 2.548 1.268 4.199 3.255 4.199s3.388-1.66 3.388-4.149c0-2.589-1.339-4.265-3.388-4.265s-3.255 1.668-3.255 4.215m16.614-9.741h6.262c4.125 0 6.618 2.854 6.618 7.526s-2.52 7.551-6.618 7.551h-6.271zm5.907 13.384c3.212 0 4.906-2.008 4.906-5.808s-1.694-5.859-4.906-5.859h-3.832v11.692zm10.532-3.145a3.67 3.67 0 0 0 .63 2.315c.296.443.71.806 1.201 1.053a3.4 3.4 0 0 0 1.602.357 3.2 3.2 0 0 0 1.94-.581 2.86 2.86 0 0 0 1.12-1.593h1.872c-.174 1.101-.784 2.099-1.71 2.798a4.95 4.95 0 0 1-3.284.97c-3.3 0-5.323-2.174-5.323-5.751 0-3.576 2.094-5.875 5.323-5.875 1.006-.036 2 .218 2.846.729a4.67 4.67 0 0 1 1.882 2.126 8.8 8.8 0 0 1 .47 3.452zm6.6-1.411c0-1.942-1.313-3.319-3.211-3.319-1.899 0-3.185 1.303-3.345 3.319zm5.828 6.249h-1.872V93.409h1.872zm4.461-12.912h-1.872V93.4h1.872zm0 12.904h-1.854v-10.83h1.854zm5.464.007-4.143-10.837h2.094l3.122 8.788 3.3-8.788h2.129l-4.435 10.837zm8.765-4.837a3.68 3.68 0 0 0 .621 2.315 3.16 3.16 0 0 0 1.208 1.052 3.4 3.4 0 0 0 1.604.359 3.2 3.2 0 0 0 1.937-.583 2.85 2.85 0 0 0 1.115-1.591h1.898c-.171 1.101-.781 2.101-1.707 2.799a4.94 4.94 0 0 1-3.287.968c-3.3 0-5.322-2.174-5.322-5.75s2.093-5.875 5.322-5.875a5.13 5.13 0 0 1 2.848.725 4.65 4.65 0 0 1 1.88 2.129 8.8 8.8 0 0 1 .47 3.452zm6.609-1.435c0-1.942-1.313-3.32-3.211-3.32s-3.194 1.303-3.344 3.32zm5.766-4.565v1.967c1.073-1.618 1.987-2.274 3.193-2.274q.357.004.71.058v1.76c-2.564-.067-3.726 1.095-3.744 3.7v5.626h-1.871V97.648zm14.901 0-5.198 13.119a3.4 3.4 0 0 1-1.268 1.718 3.3 3.3 0 0 1-1.774.514 2.6 2.6 0 0 1-1.251-.273v-1.552q.48.115.976.124c.344.024.685-.07.96-.264a1.33 1.33 0 0 0 .539-.789l.71-1.718-3.948-10.879h2.005l2.989 8.439 3.22-8.439zm17.173 5.586c0 3.56-1.987 5.734-5.322 5.734s-5.322-2.158-5.322-5.809 1.96-5.808 5.26-5.808 5.384 2.115 5.384 5.883m-8.631-.083c0 2.63 1.269 4.223 3.344 4.223s3.345-1.593 3.345-4.149c0-2.696-1.251-4.281-3.345-4.281-2.093 0-3.344 1.61-3.344 4.207m14.966-4.101h-1.943v9.436h-1.845v-9.435h-1.561v-1.402h1.561v-1.843c-.031-.34.019-.683.147-1.004s.33-.61.593-.849c.262-.238.578-.419.924-.529s.714-.146 1.077-.107a4.7 4.7 0 0 1 1.047.108v1.427h-.647c-.888 0-1.296.374-1.296 1.096v1.7h1.943zm17.084-1.219c0-1.983-1.473-3.062-4.063-3.062-2.182 0-3.637 1.013-3.637 2.548 0 1.162.719 1.734 2.661 2.232l4.099 1.004c2.208.564 3.459 1.925 3.459 3.792a4.3 4.3 0 0 1-.478 1.91 4.6 4.6 0 0 1-1.296 1.542 7.97 7.97 0 0 1-4.577 1.162c-2.475 0-4.347-.73-5.456-2.158a4.75 4.75 0 0 1-.966-3.12h1.969a3.1 3.1 0 0 0 .887 2.315c.78.872 1.96 1.262 3.743 1.262a5.54 5.54 0 0 0 2.99-.639c.352-.242.641-.556.842-.919.202-.362.311-.764.32-1.172 0-1.179-.887-1.942-2.99-2.44l-4.036-.996c-2.138-.514-3.184-1.66-3.184-3.518 0-2.73 2.208-4.423 5.774-4.423 2.741 0 4.64.913 5.527 2.647.344.624.492 1.326.425 2.025zm5.863 5.817a3.68 3.68 0 0 0 .63 2.315c.296.443.71.806 1.202 1.053a3.4 3.4 0 0 0 1.601.357 3.2 3.2 0 0 0 1.946-.579 2.85 2.85 0 0 0 1.123-1.595h1.872c-.173 1.101-.784 2.099-1.709 2.798a4.96 4.96 0 0 1-3.285.97c-3.3 0-5.322-2.174-5.322-5.751 0-3.576 2.093-5.875 5.322-5.875 1.006-.036 2 .218 2.846.729a4.67 4.67 0 0 1 1.882 2.126 8.8 8.8 0 0 1 .47 3.452zm6.6-1.411c0-1.942-1.313-3.319-3.211-3.319s-3.185 1.303-3.344 3.319zm5.784-4.589v1.967c1.064-1.618 1.978-2.274 3.184-2.274q.362.004.719.058v1.76c-2.573-.067-3.726 1.095-3.753 3.7v5.626h-1.871V97.648zm8.675 10.837-4.107-10.837h2.102l3.114 8.788 3.299-8.788h2.103l-4.48 10.837zm9.72-12.911h-1.871V93.4h1.871zm0 12.904h-1.854v-10.83h1.854zm9.795-7.187a2.43 2.43 0 0 0-.866-1.71 2.77 2.77 0 0 0-1.901-.646c-2.032 0-3.229 1.609-3.229 4.323 0 2.564 1.224 4.149 3.273 4.149 1.579 0 2.546-.872 2.856-2.606h1.872c-.222 2.647-1.987 4.199-4.772 4.199-3.167 0-5.172-2.216-5.172-5.709s2.032-5.916 5.198-5.916a5 5 0 0 1 2.12.38c.665.28 1.252.7 1.712 1.23.489.696.759 1.507.781 2.339zm5.039 2.357a3.73 3.73 0 0 0 .621 2.315c.298.442.714.804 1.207 1.052.493.247 1.046.37 1.605.358a3.2 3.2 0 0 0 1.94-.581 2.86 2.86 0 0 0 1.12-1.593h1.872c-.174 1.101-.784 2.099-1.71 2.798a4.95 4.95 0 0 1-3.284.97c-3.3 0-5.323-2.174-5.323-5.751 0-3.576 2.103-5.875 5.323-5.875 1.006-.036 2 .218 2.846.729a4.67 4.67 0 0 1 1.882 2.126 9 9 0 0 1 .461 3.452zm6.599-1.411c0-1.942-1.312-3.319-3.211-3.319s-3.184 1.303-3.344 3.319zm10.237-1.567c-.044-1.137-.843-1.734-2.342-1.734s-2.475.613-2.475 1.659c0 .772.648 1.22 2.165 1.552l1.774.398c2.324.515 3.3 1.402 3.3 3.02 0 2.092-1.872 3.436-4.817 3.436s-4.568-1.203-4.657-3.709h1.96c.014.503.2.989.533 1.385.643.518 1.477.78 2.324.731 1.623 0 2.723-.689 2.723-1.718 0-.772-.515-1.203-1.774-1.494l-1.774-.39c-2.768-.622-3.699-1.427-3.699-3.128 0-2 1.774-3.32 4.479-3.32s4.214 1.196 4.232 3.32zM164.283 20.686a3.34 3.34 0 0 1-.354 1.486 3.45 3.45 0 0 1-1.171 1.277 6.4 6.4 0 0 1-2.111.905 13.2 13.2 0 0 1-3.212.332q-3.965 0-6.005-1.8t-2.04-5.42a8 8 0 0 1 .177-1.866 2.5 2.5 0 0 1 .497-1.07 1.56 1.56 0 0 1 .79-.49 4 4 0 0 1 1.02-.125q.415 0 .825.058.371.052.727.166v2.614a8.4 8.4 0 0 0 .284 2.365c.147.55.433 1.06.834 1.485.356.37.817.638 1.33.772a7 7 0 0 0 1.774.207 4.2 4.2 0 0 0 2.058-.423c.248-.145.45-.35.583-.595a1.43 1.43 0 0 0 .171-.79 1.3 1.3 0 0 0-.115-.565 2 2 0 0 0-.293-.481 2.7 2.7 0 0 0-.426-.415l-.496-.398c.029-.286.107-.566.23-.83q.176-.407.462-.755.282-.344.656-.597a2.4 2.4 0 0 1 .807-.366 8.8 8.8 0 0 0 2.315.921c.918.224 1.864.333 2.812.324h.329c.328.428.482.952.434 1.477.005.282-.04.562-.133.83a2 2 0 0 1-.284.597h-1.171a6 6 0 0 1-.621-.05 4 4 0 0 1-.479-.082 3 3 0 0 1-.443-.133q.143.323.186.672.051.38.053.763"/><path fill="#fff" d="M171.592 16.645c.418.027.833-.084 1.171-.315q.178-.14.283-.334a1 1 0 0 0-.194-1.193 5 5 0 0 0-1.189-.648l-4.275-1.767a1.8 1.8 0 0 1-.24-.713 5 5 0 0 1-.088-.905v-.58q.036-.273.106-.54l7.691-4.423q.344.123.629.34.301.232.533.523.235.292.381.63c.091.22.139.454.142.69a1.2 1.2 0 0 1-.186.68c-.193.235-.446.42-.736.54l-4.312 2.065 1.615.631a26 26 0 0 1 1.623.689c.489.22.945.5 1.357.83.417.334.749.751.973 1.22.224.47.334.98.322 1.493a3.9 3.9 0 0 1-.328 1.576 3.34 3.34 0 0 1-.993 1.245 4.8 4.8 0 0 1-1.686.83 8.8 8.8 0 0 1-2.386.29h-5.162a2 2 0 0 1-.683-.755 2.35 2.35 0 0 1-.258-1.087 3.6 3.6 0 0 1 .151-1.02zm24.836 0c.328.429.482.952.435 1.477q.004.423-.125.83-.098.316-.283.598h-.763a7 7 0 0 1-2.404-.34 3.4 3.4 0 0 1-1.437-.988c-.066.364-.26.697-.55.946a1.95 1.95 0 0 1-1.331.382 21 21 0 0 1-3.619-.316 14.8 14.8 0 0 1-3.034-.83c-.23 0-.363.075-.408.241a5 5 0 0 0-.071 1.062v5.859a5.3 5.3 0 0 1-2.492.199 2.1 2.1 0 0 1-.728-.233 1.34 1.34 0 0 1-.505-.473 1.43 1.43 0 0 1-.187-.78v-4.555a8.7 8.7 0 0 1 .231-2.19 2.9 2.9 0 0 1 .719-1.337 2.53 2.53 0 0 1 1.233-.663 8 8 0 0 1 1.774-.175c.532-.88 1.02-1.66 1.454-2.315a11.6 11.6 0 0 1 1.313-1.66 4.5 4.5 0 0 1 1.411-.97 4.5 4.5 0 0 1 1.774-.316 5.1 5.1 0 0 1 1.596.224c.469.155.894.407 1.242.739.42.4.779.852 1.065 1.344q.582 1.003 1.047 2.058.358.87.887 1.66c.093.173.234.319.409.423s.377.16.584.166zm-5.562-.074a19 19 0 0 0-.639-1.768 8 8 0 0 0-.541-1.07 1.8 1.8 0 0 0-.434-.531.57.57 0 0 0-.329-.141.75.75 0 0 0-.443.249q-.325.322-.577.697a9 9 0 0 0-.612 1.02q-.306.593-.541 1.212.654.183 1.331.265.758.111 1.526.108h.638c.222-.016.426-.033.603-.041z"/><path fill="#fff" d="M196.278 23.889a1.8 1.8 0 0 1-.679-.102 1.7 1.7 0 0 1-.58-.346 1.54 1.54 0 0 1-.488-1.116c0-.418.175-.818.488-1.116.346-.284.79-.44 1.25-.44.461 0 .905.156 1.251.44.162.145.289.32.373.515s.124.404.115.613c.007.204-.031.407-.11.596a1.5 1.5 0 0 1-.351.508 1.7 1.7 0 0 1-.584.35 1.8 1.8 0 0 1-.685.098m.462-7.244c.343.02.685-.041.996-.18.31-.137.578-.347.778-.608a3.5 3.5 0 0 0 .621-2.183c0-.697 0-1.31-.045-1.842-.044-.53-.062-.954-.088-1.286q.438-.1.887-.15.41-.046.825-.05.48-.003.949.1c.293.075.554.235.745.457.235.304.398.652.479 1.02.12.583.173 1.175.16 1.768.108 1.568-.443 3.113-1.535 4.306a5.7 5.7 0 0 1-1.963 1.178 6 6 0 0 1-2.304.333h-.887a2 2 0 0 1-.674-.755 2.26 2.26 0 0 1-.266-1.087 3.6 3.6 0 0 1 .151-1.021zm3.663 7.244a1.84 1.84 0 0 1-1.268-.448 1.5 1.5 0 0 1-.363-.505 1.4 1.4 0 0 1-.116-.599 1.4 1.4 0 0 1 .121-.616c.087-.194.218-.37.384-.512.338-.292.783-.45 1.242-.44.462-.011.911.146 1.251.44.163.145.291.32.377.514.086.195.126.404.12.614.006.204-.031.407-.11.596-.08.19-.199.363-.352.508a1.7 1.7 0 0 1-.592.351c-.222.077-.458.11-.694.097m2.315-2.323q.146.01.292 0h.249c.443.024.887-.047 1.297-.206a2.94 2.94 0 0 0 1.071-.715c.638-.87.936-1.92.843-2.971 0-.63 0-1.261-.044-1.9-.045-.64-.071-1.245-.116-1.826a29 29 0 0 0-.151-1.577 36 36 0 0 0-.168-1.186q.372-.19.78-.299a4 4 0 0 1 1.029-.132c.331-.006.66.036.976.124.28.083.526.242.71.456.222.277.382.593.47.93q.203.757.266 1.535c.044.448.071.88.098 1.303.026.423 0 .83.053 1.302q.437.112.887.166.441.056.887.058h.328c.145.183.247.392.302.614q.107.409.106.83c.006.28-.033.56-.115.83a1.9 1.9 0 0 1-.275.597h-.098a7 7 0 0 1-1.144-.09 7 7 0 0 1-.949-.241 7.5 7.5 0 0 1-.71 2.572 5.1 5.1 0 0 1-1.321 1.66 4.9 4.9 0 0 1-1.774.904 7.4 7.4 0 0 1-2.014.274 2.4 2.4 0 0 1-1.517-.415 1.65 1.65 0 0 1-.423-.604 1.6 1.6 0 0 1-.109-.716q0-.313.062-.622.073-.339.222-.655"/><path fill="#fff" d="M215.713 18.505c-.283.317-.65.56-1.064.705a6.4 6.4 0 0 1-2.254.299 2.1 2.1 0 0 1-.674-.756 2.36 2.36 0 0 1-.257-1.087 3.3 3.3 0 0 1 .151-1.02h.585c.307.007.612-.056.887-.183.285-.15.516-.375.666-.647.532-.83 1.029-1.66 1.481-2.382q.597-.965 1.366-1.817a5.5 5.5 0 0 1 1.473-1.153 3.9 3.9 0 0 1 1.774-.407c.476-.004.95.052 1.41.166.41.104.793.285 1.127.531.361.274.678.596.94.955q.509.69.887 1.452.525 1.04.887 2.14c.226.661.349 1.348.364 2.042.005.286-.059.57-.187.83a1.76 1.76 0 0 1-.691.697c-.423.234-.885.4-1.366.49-.743.132-1.498.193-2.254.182q-.72-.002-1.437-.075a15 15 0 0 1-1.428-.207 11 11 0 0 1-1.295-.316 6.7 6.7 0 0 1-1.091-.44m4.258-5.444a.66.66 0 0 0-.399.15q-.284.263-.497.58-.328.474-.692 1.021c-.239.365-.479.83-.727 1.27q.274.12.567.19c.231.059.479.117.746.166l.816.117q.392.057.789.058c.279.014.559-.02.825-.1a.32.32 0 0 0 .178-.105.28.28 0 0 0 .07-.185 2.5 2.5 0 0 0-.062-.457 5 5 0 0 0-.186-.597q-.12-.313-.266-.64a14 14 0 0 0-.293-.613 3 3 0 0 0-.434-.656.6.6 0 0 0-.435-.199"/></g><defs><filter id="a" width="289" height="121.034" x="-4" y="-.033" color-interpolation-filters="sRGB" filterUnits="userSpaceOnUse"><feFlood flood-opacity="0" result="BackgroundImageFix"/><feColorMatrix in="SourceAlpha" result="hardAlpha" values="0 0 0 0 0 0 0 0 0 0 0 0 0 0 0 0 0 0 127 0"/><feOffset dy="4"/><feGaussianBlur stdDeviation="2"/><feComposite in2="hardAlpha" operator="out"/><feColorMatrix values="0 0 0 0 0 0 0 0 0 0 0 0 0 0 0 0 0 0 0.25 0"/><feBlend in2="BackgroundImageFix" result="effect1_dropShadow_8_1540"/><feBlend in="SourceGraphic" in2="effect1_dropShadow_8_1540" result="shape"/></filter></defs></svg>