<svg width="25" height="17" viewBox="0 0 25 17" fill="none" xmlns="http://www.w3.org/2000/svg">
<path d="M0.977173 14.9818V1.76622L1.04601 1.33029L8.82404 7.98396L1.06895 15.4407C1.00776 15.2265 0.977173 15.0736 0.977173 14.9818ZM2.00966 0.412545C2.11673 0.366657 2.24674 0.343714 2.39971 0.343714H23.3476C23.4853 0.343714 23.623 0.366657 23.7606 0.412545L15.9597 7.08916L14.9272 7.91513L12.8851 9.59002L10.8431 7.91513L9.81064 7.08916L2.00966 0.412545ZM2.0326 16.3355L9.85653 8.83288L12.8851 11.2879L15.9138 8.83288L23.7377 16.3355C23.6153 16.3814 23.4853 16.4043 23.3476 16.4043H2.39971C2.27734 16.4043 2.15497 16.3814 2.0326 16.3355ZM16.9462 7.98396L24.7013 1.33029C24.7472 1.46795 24.7702 1.61326 24.7702 1.76622V14.9818C24.7702 15.1195 24.7472 15.2724 24.7013 15.4407L16.9462 7.98396Z" fill="#FCA80F"/>
</svg>
