<svg width="24" height="24" viewBox="0 0 24 24" fill="none" xmlns="http://www.w3.org/2000/svg">
<path d="M23.255 18.2676C22.513 17.6453 18.1613 14.8897 17.438 15.0162C17.0985 15.0764 16.8387 15.3659 16.1434 16.1953C15.8219 16.6036 15.4688 16.9859 15.0873 17.3389C14.3885 17.17 13.712 16.9193 13.0719 16.5918C10.5619 15.3697 8.53406 13.3413 7.31275 10.8309C6.98526 10.1909 6.73451 9.51438 6.56569 8.81552C6.91861 8.43409 7.30096 8.08097 7.70921 7.75944C8.53777 7.06416 8.82811 6.80608 8.88838 6.46481C9.01487 5.73981 6.25667 1.38986 5.63695 0.647885C5.37717 0.340569 5.14117 0.134277 4.83895 0.134277C3.96284 0.134277 0 5.03435 0 5.66935C0 5.72114 0.0848937 10.8224 6.52748 17.3771C13.0821 23.8196 18.1834 23.9045 18.2352 23.9045C18.8702 23.9045 23.7703 19.9417 23.7703 19.0656C23.7703 18.7634 23.564 18.5274 23.255 18.2676ZM17.8277 11.1705H19.5256C19.5236 9.36987 18.8074 7.6436 17.5342 6.37039C16.2609 5.09717 14.5347 4.38099 12.7341 4.37897V6.07684C14.0846 6.07819 15.3794 6.61527 16.3343 7.57022C17.2893 8.52517 17.8263 9.81997 17.8277 11.1705Z" fill="#FCA80F"/>
<path d="M22.0724 11.1705H23.7703C23.7669 8.24453 22.6031 5.43938 20.5341 3.37043C18.4652 1.30147 15.66 0.137648 12.7341 0.134277V1.83215C15.2098 1.83507 17.5834 2.81987 19.334 4.57051C21.0847 6.32115 22.0695 8.69469 22.0724 11.1705Z" fill="#FCA80F"/>
</svg>
