<svg width="25" height="21" viewBox="0 0 25 21" fill="none" xmlns="http://www.w3.org/2000/svg">
<path d="M12.9021 4.53612C16.9461 4.5758 19.4795 4.32419 19.8216 8.80648H24.753C24.753 1.86271 18.6971 0.926758 12.7738 0.926758C6.84997 0.926758 0.794538 1.86271 0.794538 8.80648H5.68762C6.0662 4.23876 8.89179 4.49691 12.9021 4.53612ZM3.24014 11.0388C4.44124 11.0388 5.44068 11.1106 5.66288 9.92915C5.69275 9.76857 5.71003 9.58651 5.71003 9.37598H0.770264C0.770264 11.1335 1.87613 11.0388 3.24014 11.0388ZM19.8534 9.37598H19.8072C19.8072 9.58791 19.8254 9.77044 19.8594 9.92915C20.0938 11.0187 21.0918 10.951 22.2887 10.951C23.6593 10.951 24.7703 11.0411 24.7703 9.37598H19.8534Z" fill="#FCA80F"/>
<path d="M17.4442 8.17917V7.48083C17.4442 7.16853 17.0843 7.14893 16.6399 7.14893H15.914C15.47 7.14893 15.1101 7.16853 15.1101 7.48083V8.54935H9.97525V7.48083C9.97525 7.16853 9.61534 7.14893 9.17141 7.14893H8.44505C8.00112 7.14893 7.64121 7.16853 7.64121 7.48083V8.78882C6.47139 10.0044 2.64356 15.179 2.50446 15.8054L2.50632 19.9857C2.50632 20.3717 2.82048 20.6859 3.20653 20.6859H21.8789C22.2649 20.6859 22.5791 20.3717 22.5791 19.9857V15.7844C22.4414 15.1762 18.6145 10.0039 17.4442 8.78836V8.17917ZM9.72224 16.3679C9.63139 16.3703 9.54099 16.3545 9.45636 16.3213C9.37173 16.2882 9.2946 16.2385 9.2295 16.1751C9.1644 16.1117 9.11266 16.0358 9.07734 15.9521C9.04201 15.8684 9.02381 15.7784 9.02381 15.6875C9.02381 15.5967 9.04201 15.5067 9.07734 15.423C9.11266 15.3392 9.1644 15.2634 9.2295 15.2C9.2946 15.1366 9.37173 15.0869 9.45636 15.0538C9.54099 15.0206 9.63139 15.0048 9.72224 15.0072C9.8996 15.0118 10.0681 15.0855 10.1919 15.2126C10.3157 15.3397 10.385 15.5101 10.385 15.6875C10.385 15.865 10.3157 16.0354 10.1919 16.1625C10.0681 16.2896 9.8996 16.3633 9.72224 16.3679ZM9.72224 14.0339C9.63139 14.0363 9.54099 14.0204 9.45636 13.9873C9.37173 13.9542 9.2946 13.9044 9.2295 13.841C9.1644 13.7776 9.11266 13.7018 9.07734 13.6181C9.04201 13.5343 9.02381 13.4444 9.02381 13.3535C9.02381 13.2626 9.04201 13.1727 9.07734 13.0889C9.11266 13.0052 9.1644 12.9294 9.2295 12.866C9.2946 12.8026 9.37173 12.7528 9.45636 12.7197C9.54099 12.6866 9.63139 12.6708 9.72224 12.6731C9.8996 12.6778 10.0681 12.7515 10.1919 12.8786C10.3157 13.0057 10.385 13.1761 10.385 13.3535C10.385 13.5309 10.3157 13.7013 10.1919 13.8284C10.0681 13.9555 9.8996 14.0292 9.72224 14.0339ZM9.72224 11.7003C9.63139 11.7027 9.54099 11.6868 9.45636 11.6537C9.37173 11.6206 9.2946 11.5709 9.2295 11.5075C9.1644 11.444 9.11266 11.3682 9.07734 11.2845C9.04201 11.2008 9.02381 11.1108 9.02381 11.0199C9.02381 10.9291 9.04201 10.8391 9.07734 10.7554C9.11266 10.6716 9.1644 10.5958 9.2295 10.5324C9.2946 10.469 9.37173 10.4193 9.45636 10.3861C9.54099 10.353 9.63139 10.3372 9.72224 10.3396C9.8996 10.3442 10.0681 10.4179 10.1919 10.545C10.3157 10.6721 10.385 10.8425 10.385 11.0199C10.385 11.1974 10.3157 11.3678 10.1919 11.4948C10.0681 11.6219 9.8996 11.6957 9.72224 11.7003ZM12.5231 16.3679C12.4322 16.3703 12.3418 16.3545 12.2572 16.3213C12.1726 16.2882 12.0954 16.2385 12.0303 16.1751C11.9653 16.1117 11.9135 16.0358 11.8782 15.9521C11.8429 15.8684 11.8247 15.7784 11.8247 15.6875C11.8247 15.5967 11.8429 15.5067 11.8782 15.423C11.9135 15.3392 11.9653 15.2634 12.0303 15.2C12.0954 15.1366 12.1726 15.0869 12.2572 15.0538C12.3418 15.0206 12.4322 15.0048 12.5231 15.0072C12.7004 15.0118 12.869 15.0855 12.9928 15.2126C13.1166 15.3397 13.1859 15.5101 13.1859 15.6875C13.1859 15.865 13.1166 16.0354 12.9928 16.1625C12.869 16.2896 12.7004 16.3633 12.5231 16.3679ZM12.5231 14.0339C12.4322 14.0363 12.3418 14.0204 12.2572 13.9873C12.1726 13.9542 12.0954 13.9044 12.0303 13.841C11.9653 13.7776 11.9135 13.7018 11.8782 13.6181C11.8429 13.5343 11.8247 13.4444 11.8247 13.3535C11.8247 13.2626 11.8429 13.1727 11.8782 13.0889C11.9135 13.0052 11.9653 12.9294 12.0303 12.866C12.0954 12.8026 12.1726 12.7528 12.2572 12.7197C12.3418 12.6866 12.4322 12.6708 12.5231 12.6731C12.7004 12.6778 12.869 12.7515 12.9928 12.8786C13.1166 13.0057 13.1859 13.1761 13.1859 13.3535C13.1859 13.5309 13.1166 13.7013 12.9928 13.8284C12.869 13.9555 12.7004 14.0292 12.5231 14.0339ZM12.5231 11.7003C12.4322 11.7027 12.3418 11.6868 12.2572 11.6537C12.1726 11.6206 12.0954 11.5709 12.0303 11.5075C11.9653 11.444 11.9135 11.3682 11.8782 11.2845C11.8429 11.2008 11.8247 11.1108 11.8247 11.0199C11.8247 10.9291 11.8429 10.8391 11.8782 10.7554C11.9135 10.6716 11.9653 10.5958 12.0303 10.5324C12.0954 10.469 12.1726 10.4193 12.2572 10.3861C12.3418 10.353 12.4322 10.3372 12.5231 10.3396C12.7004 10.3442 12.869 10.4179 12.9928 10.545C13.1166 10.6721 13.1859 10.8425 13.1859 11.0199C13.1859 11.1974 13.1166 11.3678 12.9928 11.4948C12.869 11.6219 12.7004 11.6957 12.5231 11.7003ZM15.3239 16.3679C15.1434 16.3679 14.9703 16.2962 14.8427 16.1686C14.715 16.0409 14.6433 15.8678 14.6433 15.6873C14.6433 15.5068 14.715 15.3337 14.8427 15.2061C14.9703 15.0784 15.1434 15.0067 15.3239 15.0067C15.5044 15.0067 15.6776 15.0784 15.8052 15.2061C15.9328 15.3337 16.0045 15.5068 16.0045 15.6873C16.0045 15.8678 15.9328 16.0409 15.8052 16.1686C15.6776 16.2962 15.5044 16.3679 15.3239 16.3679ZM15.3239 14.0339C15.1434 14.0339 14.9703 13.9622 14.8427 13.8345C14.715 13.7069 14.6433 13.5338 14.6433 13.3533C14.6433 13.1728 14.715 12.9996 14.8427 12.872C14.9703 12.7444 15.1434 12.6727 15.3239 12.6727C15.5044 12.6727 15.6776 12.7444 15.8052 12.872C15.9328 12.9996 16.0045 13.1728 16.0045 13.3533C16.0045 13.5338 15.9328 13.7069 15.8052 13.8345C15.6776 13.9622 15.5044 14.0339 15.3239 14.0339ZM15.3239 11.7003C15.1434 11.7003 14.9703 11.6286 14.8427 11.501C14.715 11.3733 14.6433 11.2002 14.6433 11.0197C14.6433 10.8392 14.715 10.6661 14.8427 10.5384C14.9703 10.4108 15.1434 10.3391 15.3239 10.3391C15.5044 10.3391 15.6776 10.4108 15.8052 10.5384C15.9328 10.6661 16.0045 10.8392 16.0045 11.0197C16.0045 11.2002 15.9328 11.3733 15.8052 11.501C15.6776 11.6286 15.5044 11.7003 15.3239 11.7003Z" fill="#FCA80F"/>
</svg>
